<?xml version="1.0" encoding="UTF-8" standalone="no"?>
<!DOCTYPE svg PUBLIC "-//W3C//DTD SVG 1.1//EN"
 "http://www.w3.org/Graphics/SVG/1.1/DTD/svg11.dtd">
<!-- Generated by graphviz version 2.38.0 (20140413.2041)
 -->
<!-- Title: G Pages: 1 -->
<svg width="757pt" height="1254pt"
 viewBox="0.00 0.00 757.46 1254.00" xmlns="http://www.w3.org/2000/svg" xmlns:xlink="http://www.w3.org/1999/xlink">
<g id="graph0" class="graph" transform="scale(1 1) rotate(0) translate(4 1250)">
<title>G</title>
<polygon fill="white" stroke="none" points="-4,4 -4,-1250 753.463,-1250 753.463,4 -4,4"/>
<g id="clust1" class="cluster"><title>cluster_Global</title>
<path fill="none" stroke="gray" d="M20,-98C20,-98 729.463,-98 729.463,-98 735.463,-98 741.463,-104 741.463,-110 741.463,-110 741.463,-1226 741.463,-1226 741.463,-1232 735.463,-1238 729.463,-1238 729.463,-1238 20,-1238 20,-1238 14,-1238 8,-1232 8,-1226 8,-1226 8,-110 8,-110 8,-104 14,-98 20,-98"/>
<text text-anchor="middle" x="374.732" y="-1225.2" font-family="Times,serif" font-size="11.00" fill="gray">Global</text>
</g>
<g id="clust2" class="cluster"><title>cluster_\application</title>
<path fill="none" stroke="gray" d="M595.649,-670C595.649,-670 721.463,-670 721.463,-670 727.463,-670 733.463,-676 733.463,-682 733.463,-682 733.463,-924 733.463,-924 733.463,-930 727.463,-936 721.463,-936 721.463,-936 595.649,-936 595.649,-936 589.649,-936 583.649,-930 583.649,-924 583.649,-924 583.649,-682 583.649,-682 583.649,-676 589.649,-670 595.649,-670"/>
<text text-anchor="middle" x="658.556" y="-923.2" font-family="Times,serif" font-size="11.00" fill="gray">application</text>
</g>
<g id="clust3" class="cluster"><title>cluster_\application\src</title>
<path fill="none" stroke="gray" d="M603.649,-757C603.649,-757 713.463,-757 713.463,-757 719.463,-757 725.463,-763 725.463,-769 725.463,-769 725.463,-897 725.463,-897 725.463,-903 719.463,-909 713.463,-909 713.463,-909 603.649,-909 603.649,-909 597.649,-909 591.649,-903 591.649,-897 591.649,-897 591.649,-769 591.649,-769 591.649,-763 597.649,-757 603.649,-757"/>
<text text-anchor="middle" x="658.556" y="-896.2" font-family="Times,serif" font-size="11.00" fill="gray">src</text>
</g>
<g id="clust4" class="cluster"><title>cluster_\application\src\resources</title>
<path fill="none" stroke="gray" d="M611.649,-811C611.649,-811 705.463,-811 705.463,-811 711.463,-811 717.463,-817 717.463,-823 717.463,-823 717.463,-870 717.463,-870 717.463,-876 711.463,-882 705.463,-882 705.463,-882 611.649,-882 611.649,-882 605.649,-882 599.649,-876 599.649,-870 599.649,-870 599.649,-823 599.649,-823 599.649,-817 605.649,-811 611.649,-811"/>
<text text-anchor="middle" x="658.556" y="-869.2" font-family="Times,serif" font-size="11.00" fill="gray">resources</text>
</g>
<g id="clust5" class="cluster"><title>cluster_\application\tests</title>
<path fill="none" stroke="gray" d="M628.152,-678C628.152,-678 688.961,-678 688.961,-678 694.961,-678 700.961,-684 700.961,-690 700.961,-690 700.961,-737 700.961,-737 700.961,-743 694.961,-749 688.961,-749 688.961,-749 628.152,-749 628.152,-749 622.152,-749 616.152,-743 616.152,-737 616.152,-737 616.152,-690 616.152,-690 616.152,-684 622.152,-678 628.152,-678"/>
<text text-anchor="middle" x="658.556" y="-736.2" font-family="Times,serif" font-size="11.00" fill="gray">tests</text>
</g>
<g id="clust6" class="cluster"><title>cluster_\system</title>
<path fill="none" stroke="gray" d="M28,-106C28,-106 547.649,-106 547.649,-106 553.649,-106 559.649,-112 559.649,-118 559.649,-118 559.649,-1199 559.649,-1199 559.649,-1205 553.649,-1211 547.649,-1211 547.649,-1211 28,-1211 28,-1211 22,-1211 16,-1205 16,-1199 16,-1199 16,-118 16,-118 16,-112 22,-106 28,-106"/>
<text text-anchor="middle" x="287.825" y="-1198.2" font-family="Times,serif" font-size="11.00" fill="gray">system</text>
</g>
<g id="clust7" class="cluster"><title>cluster_\system\control</title>
<path fill="none" stroke="gray" d="M198.513,-282C198.513,-282 539.649,-282 539.649,-282 545.649,-282 551.649,-288 551.649,-294 551.649,-294 551.649,-1172 551.649,-1172 551.649,-1178 545.649,-1184 539.649,-1184 539.649,-1184 198.513,-1184 198.513,-1184 192.513,-1184 186.513,-1178 186.513,-1172 186.513,-1172 186.513,-294 186.513,-294 186.513,-288 192.513,-282 198.513,-282"/>
<text text-anchor="middle" x="369.081" y="-1171.2" font-family="Times,serif" font-size="11.00" fill="gray">control</text>
</g>
<g id="clust8" class="cluster"><title>cluster_\system\control\database</title>
<path fill="none" stroke="gray" d="M214.513,-978C214.513,-978 521.748,-978 521.748,-978 527.748,-978 533.748,-984 533.748,-990 533.748,-990 533.748,-1145 533.748,-1145 533.748,-1151 527.748,-1157 521.748,-1157 521.748,-1157 214.513,-1157 214.513,-1157 208.513,-1157 202.513,-1151 202.513,-1145 202.513,-1145 202.513,-990 202.513,-990 202.513,-984 208.513,-978 214.513,-978"/>
<text text-anchor="middle" x="368.131" y="-1144.2" font-family="Times,serif" font-size="11.00" fill="gray">database</text>
</g>
<g id="clust9" class="cluster"><title>cluster_\system\control\datatypes</title>
<path fill="none" stroke="gray" d="M434.535,-477C434.535,-477 508.546,-477 508.546,-477 514.546,-477 520.546,-483 520.546,-489 520.546,-489 520.546,-590 520.546,-590 520.546,-596 514.546,-602 508.546,-602 508.546,-602 434.535,-602 434.535,-602 428.535,-602 422.535,-596 422.535,-590 422.535,-590 422.535,-489 422.535,-489 422.535,-483 428.535,-477 434.535,-477"/>
<text text-anchor="middle" x="471.54" y="-589.2" font-family="Times,serif" font-size="11.00" fill="gray">datatypes</text>
</g>
<g id="clust10" class="cluster"><title>cluster_\system\control\error</title>
<path fill="none" stroke="gray" d="M411.431,-290C411.431,-290 531.649,-290 531.649,-290 537.649,-290 543.649,-296 543.649,-302 543.649,-302 543.649,-457 543.649,-457 543.649,-463 537.649,-469 531.649,-469 531.649,-469 411.431,-469 411.431,-469 405.431,-469 399.431,-463 399.431,-457 399.431,-457 399.431,-302 399.431,-302 399.431,-296 405.431,-290 411.431,-290"/>
<text text-anchor="middle" x="471.54" y="-456.2" font-family="Times,serif" font-size="11.00" fill="gray">error</text>
</g>
<g id="clust11" class="cluster"><title>cluster_\system\control\tools</title>
<path fill="none" stroke="gray" d="M206.513,-610C206.513,-610 516.546,-610 516.546,-610 522.546,-610 528.546,-616 528.546,-622 528.546,-622 528.546,-912 528.546,-912 528.546,-918 522.546,-924 516.546,-924 516.546,-924 206.513,-924 206.513,-924 200.513,-924 194.513,-918 194.513,-912 194.513,-912 194.513,-622 194.513,-622 194.513,-616 200.513,-610 206.513,-610"/>
<text text-anchor="middle" x="361.53" y="-911.2" font-family="Times,serif" font-size="11.00" fill="gray">tools</text>
</g>
<g id="clust12" class="cluster"><title>cluster_\system\control\tools\rest</title>
<path fill="none" stroke="gray" d="M214.513,-772C214.513,-772 508.546,-772 508.546,-772 514.546,-772 520.546,-778 520.546,-784 520.546,-784 520.546,-885 520.546,-885 520.546,-891 514.546,-897 508.546,-897 508.546,-897 214.513,-897 214.513,-897 208.513,-897 202.513,-891 202.513,-885 202.513,-885 202.513,-784 202.513,-784 202.513,-778 208.513,-772 214.513,-772"/>
<text text-anchor="middle" x="361.53" y="-884.2" font-family="Times,serif" font-size="11.00" fill="gray">rest</text>
</g>
<g id="clust13" class="cluster"><title>cluster_\system\view</title>
<path fill="none" stroke="gray" d="M36,-114C36,-114 529.748,-114 529.748,-114 535.748,-114 541.748,-120 541.748,-126 541.748,-126 541.748,-262 541.748,-262 541.748,-268 535.748,-274 529.748,-274 529.748,-274 36,-274 36,-274 30,-274 24,-268 24,-262 24,-262 24,-126 24,-126 24,-120 30,-114 36,-114"/>
<text text-anchor="middle" x="282.874" y="-261.2" font-family="Times,serif" font-size="11.00" fill="gray">view</text>
</g>
<g id="clust14" class="cluster"><title>cluster_\system\view\html</title>
<path fill="none" stroke="gray" d="M44,-122C44,-122 521.748,-122 521.748,-122 527.748,-122 533.748,-128 533.748,-134 533.748,-134 533.748,-235 533.748,-235 533.748,-241 527.748,-247 521.748,-247 521.748,-247 44,-247 44,-247 38,-247 32,-241 32,-235 32,-235 32,-134 32,-134 32,-128 38,-122 44,-122"/>
<text text-anchor="middle" x="282.874" y="-234.2" font-family="Times,serif" font-size="11.00" fill="gray">html</text>
</g>
<!-- \\application\\src\\resources\\TesteResource -->
<g id="node1" class="node"><title>\\application\\src\\resources\\TesteResource</title>
<polygon fill="none" stroke="black" points="709.371,-855 607.742,-855 607.742,-819 709.371,-819 709.371,-855"/>
<text text-anchor="middle" x="658.556" y="-833.7" font-family="Courier,monospace" font-size="11.00">TesteResource</text>
</g>
<!-- \\system\\control\\tools\\rest\\Resource -->
<g id="node13" class="node"><title>\\system\\control\\tools\\rest\\Resource</title>
<polygon fill="none" stroke="black" points="512.551,-870 430.53,-870 430.53,-834 512.551,-834 512.551,-870"/>
<text text-anchor="start" x="438.535" y="-854.2" font-family="Courier,monospace" font-size="11.00">«abstract»</text>
<text text-anchor="start" x="445.136" y="-843.2" font-family="Courier,monospace" font-size="11.00">Resource</text>
</g>
<!-- \\application\\src\\resources\\TesteResource&#45;&gt;\\system\\control\\tools\\rest\\Resource -->
<g id="edge1" class="edge"><title>\\application\\src\\resources\\TesteResource&#45;&gt;\\system\\control\\tools\\rest\\Resource</title>
<path fill="none" stroke="black" d="M607.488,-841.059C581.224,-843.189 549.132,-845.79 522.834,-847.922"/>
<polygon fill="none" stroke="black" points="522.379,-844.448 512.695,-848.745 522.945,-851.425 522.379,-844.448"/>
</g>
<!-- \\application\\src\\App -->
<g id="node2" class="node"><title>\\application\\src\\App</title>
<polygon fill="none" stroke="black" points="685.556,-801 631.556,-801 631.556,-765 685.556,-765 685.556,-801"/>
<text text-anchor="middle" x="658.556" y="-779.7" font-family="Courier,monospace" font-size="11.00">App</text>
</g>
<!-- \\application\\tests\\MainTest -->
<g id="node3" class="node"><title>\\application\\tests\\MainTest</title>
<polygon fill="none" stroke="black" points="692.865,-722 624.248,-722 624.248,-686 692.865,-686 692.865,-722"/>
<text text-anchor="middle" x="658.556" y="-700.7" font-family="Courier,monospace" font-size="11.00">MainTest</text>
</g>
<!-- \\system\\control\\tools\\UnitTest -->
<g id="node17" class="node"><title>\\system\\control\\tools\\UnitTest</title>
<polygon fill="none" stroke="black" points="512.551,-708 430.53,-708 430.53,-672 512.551,-672 512.551,-708"/>
<text text-anchor="start" x="438.535" y="-692.2" font-family="Courier,monospace" font-size="11.00">«abstract»</text>
<text text-anchor="start" x="445.136" y="-681.2" font-family="Courier,monospace" font-size="11.00">UnitTest</text>
</g>
<!-- \\application\\tests\\MainTest&#45;&gt;\\system\\control\\tools\\UnitTest -->
<g id="edge2" class="edge"><title>\\application\\tests\\MainTest&#45;&gt;\\system\\control\\tools\\UnitTest</title>
<path fill="none" stroke="black" d="M624.051,-701.465C595.768,-699.325 554.856,-696.229 522.672,-693.793"/>
<polygon fill="none" stroke="black" points="522.793,-690.293 512.557,-693.028 522.264,-697.273 522.793,-690.293"/>
</g>
<!-- \\system\\control\\database\\Database -->
<g id="node4" class="node"><title>\\system\\control\\database\\Database</title>
<polygon fill="none" stroke="black" points="505.849,-1022 437.231,-1022 437.231,-986 505.849,-986 505.849,-1022"/>
<text text-anchor="middle" x="471.54" y="-1000.7" font-family="Courier,monospace" font-size="11.00">Database</text>
</g>
<!-- \\system\\control\\Singleton -->
<g id="node20" class="node"><title>\\system\\control\\Singleton</title>
<polygon fill="none" stroke="black" points="302.632,-969 226.81,-969 226.81,-933 302.632,-933 302.632,-969"/>
<text text-anchor="middle" x="264.721" y="-947.7" font-family="Courier,monospace" font-size="11.00">Singleton</text>
</g>
<!-- \\system\\control\\database\\Database&#45;&gt;\\system\\control\\Singleton -->
<g id="edge4" class="edge"><title>\\system\\control\\database\\Database&#45;&gt;\\system\\control\\Singleton</title>
<path fill="none" stroke="black" stroke-dasharray="1,5" d="M437.177,-995.367C403.254,-986.589 350.412,-972.915 312.357,-963.068"/>
<polygon fill="none" stroke="black" points="313.091,-959.642 302.533,-960.526 311.337,-966.419 313.091,-959.642"/>
</g>
<!-- \\system\\control\\database\\DatabaseResult -->
<g id="node5" class="node"><title>\\system\\control\\database\\DatabaseResult</title>
<polygon fill="none" stroke="black" points="525.956,-1076 417.124,-1076 417.124,-1040 525.956,-1040 525.956,-1076"/>
<text text-anchor="middle" x="471.54" y="-1054.7" font-family="Courier,monospace" font-size="11.00">DatabaseResult</text>
</g>
<!-- \\system\\control\\database\\Mysql -->
<g id="node6" class="node"><title>\\system\\control\\database\\Mysql</title>
<polygon fill="none" stroke="black" points="498.54,-1130 444.54,-1130 444.54,-1094 498.54,-1094 498.54,-1130"/>
<text text-anchor="middle" x="471.54" y="-1108.7" font-family="Courier,monospace" font-size="11.00">Mysql</text>
</g>
<!-- \\system\\control\\database\\DatabaseDriver -->
<g id="node7" class="node"><title>\\system\\control\\database\\DatabaseDriver</title>
<polygon fill="none" stroke="black" points="319.137,-1130 210.305,-1130 210.305,-1094 319.137,-1094 319.137,-1130"/>
<text text-anchor="middle" x="264.721" y="-1108.7" font-family="Courier,monospace" font-size="11.00">DatabaseDriver</text>
</g>
<!-- \\system\\control\\database\\Mysql&#45;&gt;\\system\\control\\database\\DatabaseDriver -->
<g id="edge5" class="edge"><title>\\system\\control\\database\\Mysql&#45;&gt;\\system\\control\\database\\DatabaseDriver</title>
<path fill="none" stroke="black" stroke-dasharray="1,5" d="M444.183,-1112C415.321,-1112 367.997,-1112 329.332,-1112"/>
<polygon fill="none" stroke="black" points="329.193,-1108.5 319.193,-1112 329.193,-1115.5 329.193,-1108.5"/>
</g>
<!-- \\system\\control\\datatypes\\ArrayList -->
<g id="node8" class="node"><title>\\system\\control\\datatypes\\ArrayList</title>
<polygon fill="none" stroke="black" points="509.451,-575 433.629,-575 433.629,-539 509.451,-539 509.451,-575"/>
<text text-anchor="middle" x="471.54" y="-553.7" font-family="Courier,monospace" font-size="11.00">ArrayList</text>
</g>
<!-- \\ArrayObject -->
<g id="node26" class="node"><title>\\ArrayObject</title>
<ellipse fill="none" stroke="black" cx="264.721" cy="-72" rx="56.5201" ry="18"/>
<text text-anchor="middle" x="264.721" y="-67.8" font-family="Times,serif" font-size="14.00" fill="gray">\ArrayObject</text>
</g>
<!-- \\system\\control\\datatypes\\ArrayList&#45;&gt;\\ArrayObject -->
<g id="edge6" class="edge"><title>\\system\\control\\datatypes\\ArrayList&#45;&gt;\\ArrayObject</title>
<path fill="none" stroke="black" d="M433.508,-550.804C420.922,-546.877 407.911,-540.465 399.431,-530 282.766,-386.028 435.555,-273.929 335.431,-118 328.637,-107.419 318.447,-98.7285 307.941,-91.8613"/>
<polygon fill="none" stroke="black" points="309.477,-88.7003 299.109,-86.5204 305.855,-94.6902 309.477,-88.7003"/>
</g>
<!-- \\system\\control\\datatypes\\JsonObject -->
<g id="node9" class="node"><title>\\system\\control\\datatypes\\JsonObject</title>
<polygon fill="none" stroke="black" points="512.551,-521 430.53,-521 430.53,-485 512.551,-485 512.551,-521"/>
<text text-anchor="middle" x="471.54" y="-499.7" font-family="Courier,monospace" font-size="11.00">JsonObject</text>
</g>
<!-- \\system\\control\\error\\DatabaseException -->
<g id="node10" class="node"><title>\\system\\control\\error\\DatabaseException</title>
<polygon fill="none" stroke="black" points="535.759,-442 407.322,-442 407.322,-406 535.759,-406 535.759,-442"/>
<text text-anchor="middle" x="471.54" y="-420.7" font-family="Courier,monospace" font-size="11.00">DatabaseException</text>
</g>
<!-- \\ErrorException -->
<g id="node27" class="node"><title>\\ErrorException</title>
<ellipse fill="none" stroke="black" cx="264.721" cy="-18" rx="67.1511" ry="18"/>
<text text-anchor="middle" x="264.721" y="-13.8" font-family="Times,serif" font-size="14.00" fill="gray">\ErrorException</text>
</g>
<!-- \\system\\control\\error\\DatabaseException&#45;&gt;\\ErrorException -->
<g id="edge7" class="edge"><title>\\system\\control\\error\\DatabaseException&#45;&gt;\\ErrorException</title>
<path fill="none" stroke="black" d="M409.015,-405.857C405.468,-403.285 402.218,-400.35 399.431,-397 297.74,-274.759 436.715,-167.578 335.431,-45 332.29,-41.1981 328.545,-37.93 324.445,-35.1209"/>
<polygon fill="none" stroke="black" points="326.013,-31.984 315.611,-29.9759 322.491,-38.033 326.013,-31.984"/>
</g>
<!-- \\system\\control\\error\\Error -->
<g id="node11" class="node"><title>\\system\\control\\error\\Error</title>
<polygon fill="none" stroke="black" points="498.54,-388 444.54,-388 444.54,-352 498.54,-352 498.54,-388"/>
<text text-anchor="middle" x="471.54" y="-366.7" font-family="Courier,monospace" font-size="11.00">Error</text>
</g>
<!-- \\system\\control\\error\\SessionException -->
<g id="node12" class="node"><title>\\system\\control\\error\\SessionException</title>
<polygon fill="none" stroke="black" points="532.158,-334 410.922,-334 410.922,-298 532.158,-298 532.158,-334"/>
<text text-anchor="middle" x="471.54" y="-312.7" font-family="Courier,monospace" font-size="11.00">SessionException</text>
</g>
<!-- \\system\\control\\error\\SessionException&#45;&gt;\\ErrorException -->
<g id="edge8" class="edge"><title>\\system\\control\\error\\SessionException&#45;&gt;\\ErrorException</title>
<path fill="none" stroke="black" d="M444.636,-297.872C429.521,-286.084 411.176,-269.497 399.431,-251 348.04,-170.065 400.869,-115.067 335.431,-45 331.868,-41.1852 327.704,-37.9026 323.216,-35.0792"/>
<polygon fill="none" stroke="black" points="324.714,-31.9092 314.258,-30.1963 321.363,-38.0555 324.714,-31.9092"/>
</g>
<!-- \\system\\control\\tools\\rest\\Responsibility -->
<g id="node15" class="node"><title>\\system\\control\\tools\\rest\\Responsibility</title>
<polygon fill="none" stroke="black" points="319.137,-870 210.305,-870 210.305,-834 319.137,-834 319.137,-870"/>
<text text-anchor="middle" x="264.721" y="-848.7" font-family="Courier,monospace" font-size="11.00">Responsibility</text>
</g>
<!-- \\system\\control\\tools\\rest\\Resource&#45;&gt;\\system\\control\\tools\\rest\\Responsibility -->
<g id="edge9" class="edge"><title>\\system\\control\\tools\\rest\\Resource&#45;&gt;\\system\\control\\tools\\rest\\Responsibility</title>
<path fill="none" stroke="black" stroke-dasharray="1,5" d="M430.075,-852C401.461,-852 362.512,-852 329.713,-852"/>
<polygon fill="none" stroke="black" points="329.301,-848.5 319.301,-852 329.301,-855.5 329.301,-848.5"/>
</g>
<!-- \\system\\control\\tools\\rest\\RESTful -->
<g id="node14" class="node"><title>\\system\\control\\tools\\rest\\RESTful</title>
<polygon fill="none" stroke="black" points="502.748,-816 440.332,-816 440.332,-780 502.748,-780 502.748,-816"/>
<text text-anchor="middle" x="471.54" y="-794.7" font-family="Courier,monospace" font-size="11.00">RESTful</text>
</g>
<!-- \\system\\control\\tools\\CSV -->
<g id="node16" class="node"><title>\\system\\control\\tools\\CSV</title>
<polygon fill="none" stroke="black" points="498.54,-762 444.54,-762 444.54,-726 498.54,-726 498.54,-762"/>
<text text-anchor="middle" x="471.54" y="-740.7" font-family="Courier,monospace" font-size="11.00">CSV</text>
</g>
<!-- \\system\\control\\tools\\Util -->
<g id="node18" class="node"><title>\\system\\control\\tools\\Util</title>
<polygon fill="none" stroke="black" points="498.54,-654 444.54,-654 444.54,-618 498.54,-618 498.54,-654"/>
<text text-anchor="middle" x="471.54" y="-632.7" font-family="Courier,monospace" font-size="11.00">Util</text>
</g>
<!-- \\system\\control\\Core -->
<g id="node19" class="node"><title>\\system\\control\\Core</title>
<polygon fill="none" stroke="black" points="498.54,-968 444.54,-968 444.54,-932 498.54,-932 498.54,-968"/>
<text text-anchor="middle" x="471.54" y="-946.7" font-family="Courier,monospace" font-size="11.00">Core</text>
</g>
<!-- \\system\\control\\Core&#45;&gt;\\system\\control\\Singleton -->
<g id="edge3" class="edge"><title>\\system\\control\\Core&#45;&gt;\\system\\control\\Singleton</title>
<path fill="none" stroke="black" stroke-dasharray="1,5" d="M444.183,-950.129C411.086,-950.29 353.708,-950.57 312.953,-950.769"/>
<polygon fill="none" stroke="black" points="312.698,-947.271 302.715,-950.819 312.732,-954.27 312.698,-947.271"/>
</g>
<!-- \\system\\view\\html\\Element -->
<g id="node21" class="node"><title>\\system\\view\\html\\Element</title>
<polygon fill="none" stroke="black" points="122.016,-166 39.9946,-166 39.9946,-130 122.016,-130 122.016,-166"/>
<text text-anchor="start" x="48" y="-150.2" font-family="Courier,monospace" font-size="11.00">«abstract»</text>
<text text-anchor="start" x="57.9016" y="-139.2" font-family="Courier,monospace" font-size="11.00">Element</text>
</g>
<!-- \\system\\view\\html\\ElementsComposition -->
<g id="node22" class="node"><title>\\system\\view\\html\\ElementsComposition</title>
<polygon fill="none" stroke="black" points="335.642,-220 193.8,-220 193.8,-184 335.642,-184 335.642,-220"/>
<text text-anchor="start" x="231.716" y="-204.2" font-family="Courier,monospace" font-size="11.00">«abstract»</text>
<text text-anchor="start" x="202.011" y="-193.2" font-family="Courier,monospace" font-size="11.00">ElementsComposition</text>
</g>
<!-- \\system\\view\\html\\ElementsComposition&#45;&gt;\\system\\view\\html\\Element -->
<g id="edge10" class="edge"><title>\\system\\view\\html\\ElementsComposition&#45;&gt;\\system\\view\\html\\Element</title>
<path fill="none" stroke="black" d="M202.96,-183.944C179.876,-177.084 153.87,-169.356 131.903,-162.828"/>
<polygon fill="none" stroke="black" points="132.703,-159.414 122.12,-159.921 130.709,-166.124 132.703,-159.414"/>
</g>
<!-- \\system\\view\\html\\Inflater -->
<g id="node25" class="node"><title>\\system\\view\\html\\Inflater</title>
<polygon fill="none" stroke="black" points="115.314,-220 46.6965,-220 46.6965,-184 115.314,-184 115.314,-220"/>
<text text-anchor="middle" x="81.0054" y="-198.7" font-family="Courier,monospace" font-size="11.00">Inflater</text>
</g>
<!-- \\system\\view\\html\\ElementsComposition&#45;&gt;\\system\\view\\html\\Inflater -->
<g id="edge11" class="edge"><title>\\system\\view\\html\\ElementsComposition&#45;&gt;\\system\\view\\html\\Inflater</title>
<path fill="none" stroke="black" stroke-dasharray="1,5" d="M193.985,-202C171.143,-202 146.416,-202 126.022,-202"/>
<polygon fill="none" stroke="black" points="125.785,-198.5 115.785,-202 125.785,-205.5 125.785,-198.5"/>
</g>
<!-- \\system\\view\\html\\GenericElement -->
<g id="node23" class="node"><title>\\system\\view\\html\\GenericElement</title>
<polygon fill="none" stroke="black" points="525.956,-220 417.124,-220 417.124,-184 525.956,-184 525.956,-220"/>
<text text-anchor="middle" x="471.54" y="-198.7" font-family="Courier,monospace" font-size="11.00">GenericElement</text>
</g>
<!-- \\system\\view\\html\\GenericElement&#45;&gt;\\system\\view\\html\\ElementsComposition -->
<g id="edge12" class="edge"><title>\\system\\view\\html\\GenericElement&#45;&gt;\\system\\view\\html\\ElementsComposition</title>
<path fill="none" stroke="black" d="M417.261,-202C395.481,-202 369.816,-202 345.86,-202"/>
<polygon fill="none" stroke="black" points="345.714,-198.5 335.714,-202 345.714,-205.5 345.714,-198.5"/>
</g>
<!-- \\system\\view\\html\\TextElement -->
<g id="node24" class="node"><title>\\system\\view\\html\\TextElement</title>
<polygon fill="none" stroke="black" points="308.834,-166 220.608,-166 220.608,-130 308.834,-130 308.834,-166"/>
<text text-anchor="middle" x="264.721" y="-144.7" font-family="Courier,monospace" font-size="11.00">TextElement</text>
</g>
<!-- \\system\\view\\html\\TextElement&#45;&gt;\\system\\view\\html\\Element -->
<g id="edge13" class="edge"><title>\\system\\view\\html\\TextElement&#45;&gt;\\system\\view\\html\\Element</title>
<path fill="none" stroke="black" d="M220.196,-148C193.754,-148 159.892,-148 132.307,-148"/>
<polygon fill="none" stroke="black" points="132.07,-144.5 122.07,-148 132.07,-151.5 132.07,-144.5"/>
</g>
</g>
</svg>
