<?xml version="1.0" encoding="UTF-8" standalone="no"?>
<!DOCTYPE svg PUBLIC "-//W3C//DTD SVG 1.1//EN"
 "http://www.w3.org/Graphics/SVG/1.1/DTD/svg11.dtd">
<!-- Generated by graphviz version 2.38.0 (20140413.2041)
 -->
<!-- Title: G Pages: 1 -->
<svg width="633pt" height="995pt"
 viewBox="0.00 0.00 632.54 995.00" xmlns="http://www.w3.org/2000/svg" xmlns:xlink="http://www.w3.org/1999/xlink">
<g id="graph0" class="graph" transform="scale(1 1) rotate(0) translate(4 991)">
<title>G</title>
<polygon fill="white" stroke="none" points="-4,4 -4,-991 628.541,-991 628.541,4 -4,4"/>
<g id="clust1" class="cluster"><title>cluster_Global</title>
<path fill="none" stroke="gray" d="M20,-152C20,-152 604.541,-152 604.541,-152 610.541,-152 616.541,-158 616.541,-164 616.541,-164 616.541,-967 616.541,-967 616.541,-973 610.541,-979 604.541,-979 604.541,-979 20,-979 20,-979 14,-979 8,-973 8,-967 8,-967 8,-164 8,-164 8,-158 14,-152 20,-152"/>
<text text-anchor="middle" x="312.271" y="-966.2" font-family="Times,serif" font-size="11.00" fill="gray">Global</text>
</g>
<!-- \\Config -->
<g id="node1" class="node"><title>\\Config</title>
<polygon fill="none" stroke="black" points="572.04,-952 516.824,-952 516.824,-916 572.04,-916 572.04,-952"/>
<text text-anchor="middle" x="544.432" y="-930.7" font-family="Courier,monospace" font-size="11.00">Config</text>
</g>
<!-- \\Main -->
<g id="node2" class="node"><title>\\Main</title>
<polygon fill="none" stroke="black" points="571.432,-898 517.432,-898 517.432,-862 571.432,-862 571.432,-898"/>
<text text-anchor="middle" x="544.432" y="-876.7" font-family="Courier,monospace" font-size="11.00">Main</text>
</g>
<!-- \\App -->
<g id="node4" class="node"><title>\\App</title>
<polygon fill="none" stroke="black" points="330.178,-898 248.156,-898 248.156,-862 330.178,-862 330.178,-898"/>
<text text-anchor="start" x="256.161" y="-882.2" font-family="Courier,monospace" font-size="11.00">«abstract»</text>
<text text-anchor="start" x="279.265" y="-871.2" font-family="Courier,monospace" font-size="11.00">App</text>
</g>
<!-- \\Main&#45;&gt;\\App -->
<g id="edge1" class="edge"><title>\\Main&#45;&gt;\\App</title>
<path fill="none" stroke="black" d="M517.282,-880C475.694,-880 393.75,-880 340.502,-880"/>
<polygon fill="none" stroke="black" points="340.256,-876.5 330.256,-880 340.256,-883.5 340.256,-876.5"/>
</g>
<!-- \\MainTest -->
<g id="node3" class="node"><title>\\MainTest</title>
<polygon fill="none" stroke="black" points="578.741,-844 510.123,-844 510.123,-808 578.741,-808 578.741,-844"/>
<text text-anchor="middle" x="544.432" y="-822.7" font-family="Courier,monospace" font-size="11.00">MainTest</text>
</g>
<!-- \\UnitTest -->
<g id="node14" class="node"><title>\\UnitTest</title>
<polygon fill="none" stroke="black" points="330.178,-844 248.156,-844 248.156,-808 330.178,-808 330.178,-844"/>
<text text-anchor="start" x="256.161" y="-828.2" font-family="Courier,monospace" font-size="11.00">«abstract»</text>
<text text-anchor="start" x="262.763" y="-817.2" font-family="Courier,monospace" font-size="11.00">UnitTest</text>
</g>
<!-- \\MainTest&#45;&gt;\\UnitTest -->
<g id="edge2" class="edge"><title>\\MainTest&#45;&gt;\\UnitTest</title>
<path fill="none" stroke="black" d="M510.062,-826C466.708,-826 390.628,-826 340.311,-826"/>
<polygon fill="none" stroke="black" points="340.298,-822.5 330.298,-826 340.298,-829.5 340.298,-822.5"/>
</g>
<!-- \\Singleton -->
<g id="node23" class="node"><title>\\Singleton</title>
<polygon fill="none" stroke="black" points="94.9162,-844 19.0946,-844 19.0946,-808 94.9162,-808 94.9162,-844"/>
<text text-anchor="middle" x="57.0054" y="-822.7" font-family="Courier,monospace" font-size="11.00">Singleton</text>
</g>
<!-- \\App&#45;&gt;\\Singleton -->
<g id="edge3" class="edge"><title>\\App&#45;&gt;\\Singleton</title>
<path fill="none" stroke="black" stroke-dasharray="1,5" d="M247.944,-870.933C225.079,-865.748 195.924,-859.084 170.011,-853 148.521,-847.955 124.745,-842.242 104.648,-837.375"/>
<polygon fill="none" stroke="black" points="105.348,-833.943 94.805,-834.987 103.698,-840.746 105.348,-833.943"/>
</g>
<!-- \\Database -->
<g id="node5" class="node"><title>\\Database</title>
<polygon fill="none" stroke="black" points="323.476,-790 254.858,-790 254.858,-754 323.476,-754 323.476,-790"/>
<text text-anchor="middle" x="289.167" y="-768.7" font-family="Courier,monospace" font-size="11.00">Database</text>
</g>
<!-- \\Database&#45;&gt;\\Singleton -->
<g id="edge4" class="edge"><title>\\Database&#45;&gt;\\Singleton</title>
<path fill="none" stroke="black" stroke-dasharray="1,5" d="M254.783,-779.517C231.105,-784.876 198.587,-792.291 170.011,-799 148.521,-804.045 124.745,-809.758 104.648,-814.625"/>
<polygon fill="none" stroke="black" points="103.698,-811.254 94.805,-817.013 105.348,-818.057 103.698,-811.254"/>
</g>
<!-- \\DatabaseResult -->
<g id="node6" class="node"><title>\\DatabaseResult</title>
<polygon fill="none" stroke="black" points="598.848,-790 490.016,-790 490.016,-754 598.848,-754 598.848,-790"/>
<text text-anchor="middle" x="544.432" y="-768.7" font-family="Courier,monospace" font-size="11.00">DatabaseResult</text>
</g>
<!-- \\Mysql -->
<g id="node7" class="node"><title>\\Mysql</title>
<polygon fill="none" stroke="black" points="571.432,-736 517.432,-736 517.432,-700 571.432,-700 571.432,-736"/>
<text text-anchor="middle" x="544.432" y="-714.7" font-family="Courier,monospace" font-size="11.00">Mysql</text>
</g>
<!-- \\DatabaseDriver -->
<g id="node22" class="node"><title>\\DatabaseDriver</title>
<polygon fill="none" stroke="black" points="343.583,-736 234.751,-736 234.751,-700 343.583,-700 343.583,-736"/>
<text text-anchor="middle" x="289.167" y="-714.7" font-family="Courier,monospace" font-size="11.00">DatabaseDriver</text>
</g>
<!-- \\Mysql&#45;&gt;\\DatabaseDriver -->
<g id="edge5" class="edge"><title>\\Mysql&#45;&gt;\\DatabaseDriver</title>
<path fill="none" stroke="black" stroke-dasharray="1,5" d="M517.282,-718C479.011,-718 406.567,-718 353.758,-718"/>
<polygon fill="none" stroke="black" points="353.474,-714.5 343.474,-718 353.474,-721.5 353.474,-714.5"/>
</g>
<!-- \\ArrayList -->
<g id="node8" class="node"><title>\\ArrayList</title>
<polygon fill="none" stroke="black" points="582.343,-574 506.521,-574 506.521,-538 582.343,-538 582.343,-574"/>
<text text-anchor="middle" x="544.432" y="-552.7" font-family="Courier,monospace" font-size="11.00">ArrayList</text>
</g>
<!-- \\ArrayObject -->
<g id="node25" class="node"><title>\\ArrayObject</title>
<ellipse fill="none" stroke="black" cx="289.167" cy="-126" rx="56.5201" ry="18"/>
<text text-anchor="middle" x="289.167" y="-121.8" font-family="Times,serif" font-size="14.00" fill="gray">\ArrayObject</text>
</g>
<!-- \\ArrayList&#45;&gt;\\ArrayObject -->
<g id="edge6" class="edge"><title>\\ArrayList&#45;&gt;\\ArrayObject</title>
<path fill="none" stroke="black" d="M506.71,-547.213C496.833,-543.182 487.039,-537.362 480.323,-529 372.412,-394.639 530.343,-269.692 408.323,-148 394.421,-134.135 374.775,-127.491 355.486,-124.632"/>
<polygon fill="none" stroke="black" points="355.802,-121.145 345.464,-123.463 354.992,-128.098 355.802,-121.145"/>
</g>
<!-- \\JsonObject -->
<g id="node9" class="node"><title>\\JsonObject</title>
<polygon fill="none" stroke="black" points="585.443,-628 503.421,-628 503.421,-592 585.443,-592 585.443,-628"/>
<text text-anchor="middle" x="544.432" y="-606.7" font-family="Courier,monospace" font-size="11.00">JsonObject</text>
</g>
<!-- \\DatabaseException -->
<g id="node10" class="node"><title>\\DatabaseException</title>
<polygon fill="none" stroke="black" points="608.65,-466 480.214,-466 480.214,-430 608.65,-430 608.65,-466"/>
<text text-anchor="middle" x="544.432" y="-444.7" font-family="Courier,monospace" font-size="11.00">DatabaseException</text>
</g>
<!-- \\ErrorException -->
<g id="node26" class="node"><title>\\ErrorException</title>
<ellipse fill="none" stroke="black" cx="289.167" cy="-72" rx="67.1511" ry="18"/>
<text text-anchor="middle" x="289.167" y="-67.8" font-family="Times,serif" font-size="14.00" fill="gray">\ErrorException</text>
</g>
<!-- \\DatabaseException&#45;&gt;\\ErrorException -->
<g id="edge7" class="edge"><title>\\DatabaseException&#45;&gt;\\ErrorException</title>
<path fill="none" stroke="black" d="M490.083,-429.975C486.462,-427.367 483.141,-424.392 480.323,-421 386.61,-308.205 511.774,-202.936 408.323,-99 396.891,-87.5142 381.643,-80.4955 365.911,-76.2958"/>
<polygon fill="none" stroke="black" points="366.613,-72.8659 356.082,-74.0304 365.04,-79.6871 366.613,-72.8659"/>
</g>
<!-- \\Error -->
<g id="node11" class="node"><title>\\Error</title>
<polygon fill="none" stroke="black" points="571.432,-520 517.432,-520 517.432,-484 571.432,-484 571.432,-520"/>
<text text-anchor="middle" x="544.432" y="-498.7" font-family="Courier,monospace" font-size="11.00">Error</text>
</g>
<!-- \\SessionException -->
<g id="node12" class="node"><title>\\SessionException</title>
<polygon fill="none" stroke="black" points="605.05,-250 483.814,-250 483.814,-214 605.05,-214 605.05,-250"/>
<text text-anchor="middle" x="544.432" y="-228.7" font-family="Courier,monospace" font-size="11.00">SessionException</text>
</g>
<!-- \\SessionException&#45;&gt;\\ErrorException -->
<g id="edge8" class="edge"><title>\\SessionException&#45;&gt;\\ErrorException</title>
<path fill="none" stroke="black" d="M493.601,-213.979C488.89,-211.32 484.37,-208.334 480.323,-205 436.37,-168.783 455.346,-131.129 408.323,-99 394.942,-89.8577 378.919,-83.7725 363.054,-79.7325"/>
<polygon fill="none" stroke="black" points="363.751,-76.3015 353.221,-77.4722 362.182,-83.1236 363.751,-76.3015"/>
</g>
<!-- \\CSV -->
<g id="node13" class="node"><title>\\CSV</title>
<polygon fill="none" stroke="black" points="571.432,-412 517.432,-412 517.432,-376 571.432,-376 571.432,-412"/>
<text text-anchor="middle" x="544.432" y="-390.7" font-family="Courier,monospace" font-size="11.00">CSV</text>
</g>
<!-- \\User -->
<g id="node15" class="node"><title>\\User</title>
<polygon fill="none" stroke="black" points="571.432,-358 517.432,-358 517.432,-322 571.432,-322 571.432,-358"/>
<text text-anchor="middle" x="544.432" y="-336.7" font-family="Courier,monospace" font-size="11.00">User</text>
</g>
<!-- \\Globals -->
<g id="node16" class="node"><title>\\Globals</title>
<polygon fill="none" stroke="black" points="575.64,-304 513.224,-304 513.224,-268 575.64,-268 575.64,-304"/>
<text text-anchor="middle" x="544.432" y="-282.7" font-family="Courier,monospace" font-size="11.00">Globals</text>
</g>
<!-- \\Element -->
<g id="node17" class="node"><title>\\Element</title>
<polygon fill="none" stroke="black" points="98.0161,-628 15.9946,-628 15.9946,-592 98.0161,-592 98.0161,-628"/>
<text text-anchor="start" x="24" y="-612.2" font-family="Courier,monospace" font-size="11.00">«abstract»</text>
<text text-anchor="start" x="33.9016" y="-601.2" font-family="Courier,monospace" font-size="11.00">Element</text>
</g>
<!-- \\ElementsComposition -->
<g id="node18" class="node"><title>\\ElementsComposition</title>
<polygon fill="none" stroke="black" points="360.088,-682 218.246,-682 218.246,-646 360.088,-646 360.088,-682"/>
<text text-anchor="start" x="256.161" y="-666.2" font-family="Courier,monospace" font-size="11.00">«abstract»</text>
<text text-anchor="start" x="226.457" y="-655.2" font-family="Courier,monospace" font-size="11.00">ElementsComposition</text>
</g>
<!-- \\ElementsComposition&#45;&gt;\\Element -->
<g id="edge9" class="edge"><title>\\ElementsComposition&#45;&gt;\\Element</title>
<path fill="none" stroke="black" d="M218.159,-648.147C202.318,-644.52 185.579,-640.655 170.011,-637 149.697,-632.231 127.341,-626.865 107.979,-622.181"/>
<polygon fill="none" stroke="black" points="108.697,-618.754 98.1541,-619.801 107.049,-625.557 108.697,-618.754"/>
</g>
<!-- \\Inflater -->
<g id="node24" class="node"><title>\\Inflater</title>
<polygon fill="none" stroke="black" points="91.3142,-682 22.6965,-682 22.6965,-646 91.3142,-646 91.3142,-682"/>
<text text-anchor="middle" x="57.0054" y="-660.7" font-family="Courier,monospace" font-size="11.00">Inflater</text>
</g>
<!-- \\ElementsComposition&#45;&gt;\\Inflater -->
<g id="edge10" class="edge"><title>\\ElementsComposition&#45;&gt;\\Inflater</title>
<path fill="none" stroke="black" stroke-dasharray="1,5" d="M218.173,-664C180.223,-664 134.503,-664 101.642,-664"/>
<polygon fill="none" stroke="black" points="101.451,-660.5 91.4507,-664 101.451,-667.5 101.451,-660.5"/>
</g>
<!-- \\GenericElement -->
<g id="node19" class="node"><title>\\GenericElement</title>
<polygon fill="none" stroke="black" points="598.848,-682 490.016,-682 490.016,-646 598.848,-646 598.848,-682"/>
<text text-anchor="middle" x="544.432" y="-660.7" font-family="Courier,monospace" font-size="11.00">GenericElement</text>
</g>
<!-- \\GenericElement&#45;&gt;\\ElementsComposition -->
<g id="edge11" class="edge"><title>\\GenericElement&#45;&gt;\\ElementsComposition</title>
<path fill="none" stroke="black" d="M490.03,-664C455.393,-664 409.617,-664 370.615,-664"/>
<polygon fill="none" stroke="black" points="370.334,-660.5 360.334,-664 370.334,-667.5 370.334,-660.5"/>
</g>
<!-- \\Html -->
<g id="node20" class="node"><title>\\Html</title>
<polygon fill="none" stroke="black" points="571.432,-196 517.432,-196 517.432,-160 571.432,-160 571.432,-196"/>
<text text-anchor="middle" x="544.432" y="-174.7" font-family="Courier,monospace" font-size="11.00">Html</text>
</g>
<!-- \\GenericElementsComposition -->
<g id="node27" class="node"><title>\\GenericElementsComposition</title>
<ellipse fill="none" stroke="black" cx="289.167" cy="-18" rx="119.312" ry="18"/>
<text text-anchor="middle" x="289.167" y="-13.8" font-family="Times,serif" font-size="14.00" fill="gray">\GenericElementsComposition</text>
</g>
<!-- \\Html&#45;&gt;\\GenericElementsComposition -->
<g id="edge12" class="edge"><title>\\Html&#45;&gt;\\GenericElementsComposition</title>
<path fill="none" stroke="black" d="M530.343,-159.734C508.505,-130.682 461.729,-74.2515 408.323,-45 400.394,-40.6574 391.8,-37.012 382.985,-33.9519"/>
<polygon fill="none" stroke="black" points="383.947,-30.5848 373.355,-30.856 381.804,-37.2488 383.947,-30.5848"/>
</g>
<!-- \\TextElement -->
<g id="node21" class="node"><title>\\TextElement</title>
<polygon fill="none" stroke="black" points="333.279,-628 245.054,-628 245.054,-592 333.279,-592 333.279,-628"/>
<text text-anchor="middle" x="289.167" y="-606.7" font-family="Courier,monospace" font-size="11.00">TextElement</text>
</g>
<!-- \\TextElement&#45;&gt;\\Element -->
<g id="edge13" class="edge"><title>\\TextElement&#45;&gt;\\Element</title>
<path fill="none" stroke="black" d="M244.875,-610C205.98,-610 148.87,-610 108.033,-610"/>
<polygon fill="none" stroke="black" points="108.023,-606.5 98.0225,-610 108.022,-613.5 108.023,-606.5"/>
</g>
</g>
</svg>
