<?xml version="1.0" encoding="UTF-8" standalone="no"?>
<!DOCTYPE svg PUBLIC "-//W3C//DTD SVG 1.1//EN"
 "http://www.w3.org/Graphics/SVG/1.1/DTD/svg11.dtd">
<!-- Generated by graphviz version 2.38.0 (20140413.2041)
 -->
<!-- Title: G Pages: 1 -->
<svg width="770pt" height="1322pt"
 viewBox="0.00 0.00 770.00 1322.00" xmlns="http://www.w3.org/2000/svg" xmlns:xlink="http://www.w3.org/1999/xlink">
<g id="graph0" class="graph" transform="scale(1 1) rotate(0) translate(4 1318)">
<title>G</title>
<polygon fill="white" stroke="none" points="-4,4 -4,-1318 765.997,-1318 765.997,4 -4,4"/>
<g id="clust1" class="cluster"><title>cluster_Global</title>
<path fill="none" stroke="gray" d="M20,-98C20,-98 741.997,-98 741.997,-98 747.997,-98 753.997,-104 753.997,-110 753.997,-110 753.997,-1294 753.997,-1294 753.997,-1300 747.997,-1306 741.997,-1306 741.997,-1306 20,-1306 20,-1306 14,-1306 8,-1300 8,-1294 8,-1294 8,-110 8,-110 8,-104 14,-98 20,-98"/>
<text text-anchor="middle" x="380.999" y="-1293.2" font-family="Times,serif" font-size="11.00" fill="gray">Global</text>
</g>
<g id="clust2" class="cluster"><title>cluster_\application</title>
<path fill="none" stroke="gray" d="M432.468,-1094C432.468,-1094 509.276,-1094 509.276,-1094 515.276,-1094 521.276,-1100 521.276,-1106 521.276,-1106 521.276,-1267 521.276,-1267 521.276,-1273 515.276,-1279 509.276,-1279 509.276,-1279 432.468,-1279 432.468,-1279 426.468,-1279 420.468,-1273 420.468,-1267 420.468,-1267 420.468,-1106 420.468,-1106 420.468,-1100 426.468,-1094 432.468,-1094"/>
<text text-anchor="middle" x="470.872" y="-1266.2" font-family="Times,serif" font-size="11.00" fill="gray">application</text>
</g>
<g id="clust3" class="cluster"><title>cluster_\application\src</title>
<path fill="none" stroke="gray" d="M447.872,-1181C447.872,-1181 493.872,-1181 493.872,-1181 499.872,-1181 505.872,-1187 505.872,-1193 505.872,-1193 505.872,-1240 505.872,-1240 505.872,-1246 499.872,-1252 493.872,-1252 493.872,-1252 447.872,-1252 447.872,-1252 441.872,-1252 435.872,-1246 435.872,-1240 435.872,-1240 435.872,-1193 435.872,-1193 435.872,-1187 441.872,-1181 447.872,-1181"/>
<text text-anchor="middle" x="470.872" y="-1239.2" font-family="Times,serif" font-size="11.00" fill="gray">src</text>
</g>
<g id="clust4" class="cluster"><title>cluster_\application\tests</title>
<path fill="none" stroke="gray" d="M440.468,-1102C440.468,-1102 501.276,-1102 501.276,-1102 507.276,-1102 513.276,-1108 513.276,-1114 513.276,-1114 513.276,-1161 513.276,-1161 513.276,-1167 507.276,-1173 501.276,-1173 501.276,-1173 440.468,-1173 440.468,-1173 434.468,-1173 428.468,-1167 428.468,-1161 428.468,-1161 428.468,-1114 428.468,-1114 428.468,-1108 434.468,-1102 440.468,-1102"/>
<text text-anchor="middle" x="470.872" y="-1160.2" font-family="Times,serif" font-size="11.00" fill="gray">tests</text>
</g>
<g id="clust5" class="cluster"><title>cluster_\core</title>
<path fill="none" stroke="gray" d="M28,-106C28,-106 733.997,-106 733.997,-106 739.997,-106 745.997,-112 745.997,-118 745.997,-118 745.997,-1074 745.997,-1074 745.997,-1080 739.997,-1086 733.997,-1086 733.997,-1086 28,-1086 28,-1086 22,-1086 16,-1080 16,-1074 16,-1074 16,-118 16,-118 16,-112 22,-106 28,-106"/>
<text text-anchor="middle" x="380.999" y="-1073.2" font-family="Times,serif" font-size="11.00" fill="gray">core</text>
</g>
<g id="clust6" class="cluster"><title>cluster_\core\control</title>
<path fill="none" stroke="gray" d="M36,-282C36,-282 538.981,-282 538.981,-282 544.981,-282 550.981,-288 550.981,-294 550.981,-294 550.981,-1047 550.981,-1047 550.981,-1053 544.981,-1059 538.981,-1059 538.981,-1059 36,-1059 36,-1059 30,-1059 24,-1053 24,-1047 24,-1047 24,-294 24,-294 24,-288 30,-282 36,-282"/>
<text text-anchor="middle" x="287.491" y="-1046.2" font-family="Times,serif" font-size="11.00" fill="gray">control</text>
</g>
<g id="clust7" class="cluster"><title>cluster_\core\control\database</title>
<path fill="none" stroke="gray" d="M210.879,-853C210.879,-853 521.079,-853 521.079,-853 527.079,-853 533.079,-859 533.079,-865 533.079,-865 533.079,-1020 533.079,-1020 533.079,-1026 527.079,-1032 521.079,-1032 521.079,-1032 210.879,-1032 210.879,-1032 204.879,-1032 198.879,-1026 198.879,-1020 198.879,-1020 198.879,-865 198.879,-865 198.879,-859 204.879,-853 210.879,-853"/>
<text text-anchor="middle" x="365.979" y="-1019.2" font-family="Times,serif" font-size="11.00" fill="gray">database</text>
</g>
<g id="clust8" class="cluster"><title>cluster_\core\control\datatypes</title>
<path fill="none" stroke="gray" d="M433.867,-477C433.867,-477 507.877,-477 507.877,-477 513.877,-477 519.877,-483 519.877,-489 519.877,-489 519.877,-590 519.877,-590 519.877,-596 513.877,-602 507.877,-602 507.877,-602 433.867,-602 433.867,-602 427.867,-602 421.867,-596 421.867,-590 421.867,-590 421.867,-489 421.867,-489 421.867,-483 427.867,-477 433.867,-477"/>
<text text-anchor="middle" x="470.872" y="-589.2" font-family="Times,serif" font-size="11.00" fill="gray">datatypes</text>
</g>
<g id="clust9" class="cluster"><title>cluster_\core\control\error</title>
<path fill="none" stroke="gray" d="M410.763,-290C410.763,-290 530.981,-290 530.981,-290 536.981,-290 542.981,-296 542.981,-302 542.981,-302 542.981,-457 542.981,-457 542.981,-463 536.981,-469 530.981,-469 530.981,-469 410.763,-469 410.763,-469 404.763,-469 398.763,-463 398.763,-457 398.763,-457 398.763,-302 398.763,-302 398.763,-296 404.763,-290 410.763,-290"/>
<text text-anchor="middle" x="470.872" y="-456.2" font-family="Times,serif" font-size="11.00" fill="gray">error</text>
</g>
<g id="clust10" class="cluster"><title>cluster_\core\control\tools</title>
<path fill="none" stroke="gray" d="M44,-290C44,-290 329.195,-290 329.195,-290 335.195,-290 341.195,-296 341.195,-302 341.195,-302 341.195,-833 341.195,-833 341.195,-839 335.195,-845 329.195,-845 329.195,-845 44,-845 44,-845 38,-845 32,-839 32,-833 32,-833 32,-302 32,-302 32,-296 38,-290 44,-290"/>
<text text-anchor="middle" x="186.598" y="-832.2" font-family="Times,serif" font-size="11.00" fill="gray">tools</text>
</g>
<g id="clust11" class="cluster"><title>cluster_\core\control\tools\designpattern</title>
<path fill="none" stroke="gray" d="M210.879,-639C210.879,-639 311.294,-639 311.294,-639 317.294,-639 323.294,-645 323.294,-651 323.294,-651 323.294,-806 323.294,-806 323.294,-812 317.294,-818 311.294,-818 311.294,-818 210.879,-818 210.879,-818 204.879,-818 198.879,-812 198.879,-806 198.879,-806 198.879,-651 198.879,-651 198.879,-645 204.879,-639 210.879,-639"/>
<text text-anchor="middle" x="261.086" y="-805.2" font-family="Times,serif" font-size="11.00" fill="gray">designpattern</text>
</g>
<g id="clust12" class="cluster"><title>cluster_\core\control\tools\rest</title>
<path fill="none" stroke="gray" d="M200.977,-452C200.977,-452 321.195,-452 321.195,-452 327.195,-452 333.195,-458 333.195,-464 333.195,-464 333.195,-619 333.195,-619 333.195,-625 327.195,-631 321.195,-631 321.195,-631 200.977,-631 200.977,-631 194.977,-631 188.977,-625 188.977,-619 188.977,-619 188.977,-464 188.977,-464 188.977,-458 194.977,-452 200.977,-452"/>
<text text-anchor="middle" x="261.086" y="-618.2" font-family="Times,serif" font-size="11.00" fill="gray">rest</text>
</g>
<g id="clust13" class="cluster"><title>cluster_\core\view</title>
<path fill="none" stroke="gray" d="M216.081,-114C216.081,-114 725.997,-114 725.997,-114 731.997,-114 737.997,-120 737.997,-126 737.997,-126 737.997,-262 737.997,-262 737.997,-268 731.997,-274 725.997,-274 725.997,-274 216.081,-274 216.081,-274 210.081,-274 204.081,-268 204.081,-262 204.081,-262 204.081,-126 204.081,-126 204.081,-120 210.081,-114 216.081,-114"/>
<text text-anchor="middle" x="471.039" y="-261.2" font-family="Times,serif" font-size="11.00" fill="gray">view</text>
</g>
<g id="clust14" class="cluster"><title>cluster_\core\view\html</title>
<path fill="none" stroke="gray" d="M224.081,-122C224.081,-122 717.997,-122 717.997,-122 723.997,-122 729.997,-128 729.997,-134 729.997,-134 729.997,-235 729.997,-235 729.997,-241 723.997,-247 717.997,-247 717.997,-247 224.081,-247 224.081,-247 218.081,-247 212.081,-241 212.081,-235 212.081,-235 212.081,-134 212.081,-134 212.081,-128 218.081,-122 224.081,-122"/>
<text text-anchor="middle" x="471.039" y="-234.2" font-family="Times,serif" font-size="11.00" fill="gray">html</text>
</g>
<!-- \\application\\src\\App -->
<g id="node1" class="node"><title>\\application\\src\\App</title>
<polygon fill="none" stroke="black" points="497.872,-1225 443.872,-1225 443.872,-1189 497.872,-1189 497.872,-1225"/>
<text text-anchor="middle" x="470.872" y="-1203.7" font-family="Courier,monospace" font-size="11.00">App</text>
</g>
<!-- \\application\\tests\\MainTest -->
<g id="node2" class="node"><title>\\application\\tests\\MainTest</title>
<polygon fill="none" stroke="black" points="505.181,-1146 436.563,-1146 436.563,-1110 505.181,-1110 505.181,-1146"/>
<text text-anchor="middle" x="470.872" y="-1124.7" font-family="Courier,monospace" font-size="11.00">MainTest</text>
</g>
<!-- \\core\\control\\tools\\UnitTest -->
<g id="node20" class="node"><title>\\core\\control\\tools\\UnitTest</title>
<polygon fill="none" stroke="black" points="302.097,-388 220.075,-388 220.075,-352 302.097,-352 302.097,-388"/>
<text text-anchor="start" x="228.081" y="-372.2" font-family="Courier,monospace" font-size="11.00">«abstract»</text>
<text text-anchor="start" x="234.682" y="-361.2" font-family="Courier,monospace" font-size="11.00">UnitTest</text>
</g>
<!-- \\application\\tests\\MainTest&#45;&gt;\\core\\control\\tools\\UnitTest -->
<g id="edge1" class="edge"><title>\\application\\tests\\MainTest&#45;&gt;\\core\\control\\tools\\UnitTest</title>
<path fill="none" stroke="black" d="M450.737,-1109.94C433.849,-1092.71 410.192,-1065.13 398.763,-1036 346.683,-903.277 429.27,-509.118 341.195,-397 333.915,-387.732 323.293,-381.627 312.181,-377.611"/>
<polygon fill="none" stroke="black" points="312.949,-374.186 302.362,-374.593 310.892,-380.877 312.949,-374.186"/>
</g>
<!-- \\core\\control\\database\\Database -->
<g id="node3" class="node"><title>\\core\\control\\database\\Database</title>
<polygon fill="none" stroke="black" points="505.181,-897 436.563,-897 436.563,-861 505.181,-861 505.181,-897"/>
<text text-anchor="middle" x="470.872" y="-875.7" font-family="Courier,monospace" font-size="11.00">Database</text>
</g>
<!-- \\core\\control\\tools\\designpattern\\Singleton -->
<g id="node14" class="node"><title>\\core\\control\\tools\\designpattern\\Singleton</title>
<polygon fill="none" stroke="black" points="298.997,-791 223.175,-791 223.175,-755 298.997,-755 298.997,-791"/>
<text text-anchor="middle" x="261.086" y="-769.7" font-family="Courier,monospace" font-size="11.00">Singleton</text>
</g>
<!-- \\core\\control\\database\\Database&#45;&gt;\\core\\control\\tools\\designpattern\\Singleton -->
<g id="edge2" class="edge"><title>\\core\\control\\database\\Database&#45;&gt;\\core\\control\\tools\\designpattern\\Singleton</title>
<path fill="none" stroke="black" stroke-dasharray="1,5" d="M436.308,-870.497C424.227,-866.949 410.651,-862.388 398.763,-857 361.681,-840.192 322.383,-815.191 295.491,-796.833"/>
<polygon fill="none" stroke="black" points="297.433,-793.921 287.214,-791.125 293.459,-799.684 297.433,-793.921"/>
</g>
<!-- \\core\\control\\database\\DatabaseResult -->
<g id="node4" class="node"><title>\\core\\control\\database\\DatabaseResult</title>
<polygon fill="none" stroke="black" points="525.288,-951 416.456,-951 416.456,-915 525.288,-915 525.288,-951"/>
<text text-anchor="middle" x="470.872" y="-929.7" font-family="Courier,monospace" font-size="11.00">DatabaseResult</text>
</g>
<!-- \\core\\control\\database\\Mysql -->
<g id="node5" class="node"><title>\\core\\control\\database\\Mysql</title>
<polygon fill="none" stroke="black" points="497.872,-1005 443.872,-1005 443.872,-969 497.872,-969 497.872,-1005"/>
<text text-anchor="middle" x="470.872" y="-983.7" font-family="Courier,monospace" font-size="11.00">Mysql</text>
</g>
<!-- \\core\\control\\database\\DatabaseDriver -->
<g id="node6" class="node"><title>\\core\\control\\database\\DatabaseDriver</title>
<polygon fill="none" stroke="black" points="315.502,-1005 206.67,-1005 206.67,-969 315.502,-969 315.502,-1005"/>
<text text-anchor="middle" x="261.086" y="-983.7" font-family="Courier,monospace" font-size="11.00">DatabaseDriver</text>
</g>
<!-- \\core\\control\\database\\Mysql&#45;&gt;\\core\\control\\database\\DatabaseDriver -->
<g id="edge3" class="edge"><title>\\core\\control\\database\\Mysql&#45;&gt;\\core\\control\\database\\DatabaseDriver</title>
<path fill="none" stroke="black" stroke-dasharray="1,5" d="M443.556,-987C414.021,-987 365.053,-987 325.423,-987"/>
<polygon fill="none" stroke="black" points="325.305,-983.5 315.305,-987 325.305,-990.5 325.305,-983.5"/>
</g>
<!-- \\core\\control\\datatypes\\ArrayList -->
<g id="node7" class="node"><title>\\core\\control\\datatypes\\ArrayList</title>
<polygon fill="none" stroke="black" points="508.783,-575 432.961,-575 432.961,-539 508.783,-539 508.783,-575"/>
<text text-anchor="middle" x="470.872" y="-553.7" font-family="Courier,monospace" font-size="11.00">ArrayList</text>
</g>
<!-- \\ArrayObject -->
<g id="node27" class="node"><title>\\ArrayObject</title>
<ellipse fill="none" stroke="black" cx="261.086" cy="-72" rx="56.5201" ry="18"/>
<text text-anchor="middle" x="261.086" y="-67.8" font-family="Times,serif" font-size="14.00" fill="gray">\ArrayObject</text>
</g>
<!-- \\core\\control\\datatypes\\ArrayList&#45;&gt;\\ArrayObject -->
<g id="edge4" class="edge"><title>\\core\\control\\datatypes\\ArrayList&#45;&gt;\\ArrayObject</title>
<path fill="none" stroke="black" d="M433.123,-550.989C420.413,-547.08 407.245,-540.633 398.763,-530 283.461,-385.467 444.286,-271.481 341.195,-118 333.212,-106.114 321.045,-96.8956 308.629,-89.9399"/>
<polygon fill="none" stroke="black" points="310.091,-86.7556 299.601,-85.2691 306.874,-92.9728 310.091,-86.7556"/>
</g>
<!-- \\core\\control\\datatypes\\JsonObject -->
<g id="node8" class="node"><title>\\core\\control\\datatypes\\JsonObject</title>
<polygon fill="none" stroke="black" points="511.883,-521 429.861,-521 429.861,-485 511.883,-485 511.883,-521"/>
<text text-anchor="middle" x="470.872" y="-499.7" font-family="Courier,monospace" font-size="11.00">JsonObject</text>
</g>
<!-- \\core\\control\\error\\DatabaseException -->
<g id="node9" class="node"><title>\\core\\control\\error\\DatabaseException</title>
<polygon fill="none" stroke="black" points="535.09,-442 406.653,-442 406.653,-406 535.09,-406 535.09,-442"/>
<text text-anchor="middle" x="470.872" y="-420.7" font-family="Courier,monospace" font-size="11.00">DatabaseException</text>
</g>
<!-- \\ErrorException -->
<g id="node28" class="node"><title>\\ErrorException</title>
<ellipse fill="none" stroke="black" cx="261.086" cy="-18" rx="67.1511" ry="18"/>
<text text-anchor="middle" x="261.086" y="-13.8" font-family="Times,serif" font-size="14.00" fill="gray">\ErrorException</text>
</g>
<!-- \\core\\control\\error\\DatabaseException&#45;&gt;\\ErrorException -->
<g id="edge5" class="edge"><title>\\core\\control\\error\\DatabaseException&#45;&gt;\\ErrorException</title>
<path fill="none" stroke="black" d="M408.279,-405.912C404.748,-403.328 401.52,-400.375 398.763,-397 298.468,-274.238 443.561,-166.04 341.195,-45 337.013,-40.0552 331.886,-36.0139 326.269,-32.7114"/>
<polygon fill="none" stroke="black" points="327.612,-29.4694 317.106,-28.1061 324.469,-35.724 327.612,-29.4694"/>
</g>
<!-- \\core\\control\\error\\Error -->
<g id="node10" class="node"><title>\\core\\control\\error\\Error</title>
<polygon fill="none" stroke="black" points="497.872,-388 443.872,-388 443.872,-352 497.872,-352 497.872,-388"/>
<text text-anchor="middle" x="470.872" y="-366.7" font-family="Courier,monospace" font-size="11.00">Error</text>
</g>
<!-- \\core\\control\\error\\SessionException -->
<g id="node11" class="node"><title>\\core\\control\\error\\SessionException</title>
<polygon fill="none" stroke="black" points="531.49,-334 410.254,-334 410.254,-298 531.49,-298 531.49,-334"/>
<text text-anchor="middle" x="470.872" y="-312.7" font-family="Courier,monospace" font-size="11.00">SessionException</text>
</g>
<!-- \\core\\control\\error\\SessionException&#45;&gt;\\ErrorException -->
<g id="edge6" class="edge"><title>\\core\\control\\error\\SessionException&#45;&gt;\\ErrorException</title>
<path fill="none" stroke="black" d="M443.777,-297.992C428.592,-286.247 410.241,-269.664 398.763,-251 348.963,-170.025 406.493,-114.089 341.195,-45 336.682,-40.2242 331.29,-36.2932 325.471,-33.0575"/>
<polygon fill="none" stroke="black" points="326.571,-29.7028 316.042,-28.5237 323.538,-36.0115 326.571,-29.7028"/>
</g>
<!-- \\core\\control\\tools\\designpattern\\Inflater -->
<g id="node12" class="node"><title>\\core\\control\\tools\\designpattern\\Inflater</title>
<polygon fill="none" stroke="black" points="295.395,-683 226.777,-683 226.777,-647 295.395,-647 295.395,-683"/>
<text text-anchor="middle" x="261.086" y="-661.7" font-family="Courier,monospace" font-size="11.00">Inflater</text>
</g>
<!-- \\core\\control\\tools\\designpattern\\Responsibility -->
<g id="node13" class="node"><title>\\core\\control\\tools\\designpattern\\Responsibility</title>
<polygon fill="none" stroke="black" points="315.502,-737 206.67,-737 206.67,-701 315.502,-701 315.502,-737"/>
<text text-anchor="middle" x="261.086" y="-715.7" font-family="Courier,monospace" font-size="11.00">Responsibility</text>
</g>
<!-- \\core\\control\\tools\\rest\\Resource -->
<g id="node15" class="node"><title>\\core\\control\\tools\\rest\\Resource</title>
<polygon fill="none" stroke="black" points="302.097,-604 220.075,-604 220.075,-568 302.097,-568 302.097,-604"/>
<text text-anchor="start" x="228.081" y="-588.2" font-family="Courier,monospace" font-size="11.00">«abstract»</text>
<text text-anchor="start" x="234.682" y="-577.2" font-family="Courier,monospace" font-size="11.00">Resource</text>
</g>
<!-- \\core\\control\\tools\\rest\\RESTful -->
<g id="node16" class="node"><title>\\core\\control\\tools\\rest\\RESTful</title>
<polygon fill="none" stroke="black" points="292.294,-550 229.878,-550 229.878,-514 292.294,-514 292.294,-550"/>
<text text-anchor="middle" x="261.086" y="-528.7" font-family="Courier,monospace" font-size="11.00">RESTful</text>
</g>
<!-- \\core\\control\\tools\\rest\\RESTfulAnnotation -->
<g id="node17" class="node"><title>\\core\\control\\tools\\rest\\RESTfulAnnotation</title>
<polygon fill="none" stroke="black" points="325.305,-496 196.868,-496 196.868,-460 325.305,-460 325.305,-496"/>
<text text-anchor="middle" x="261.086" y="-474.7" font-family="Courier,monospace" font-size="11.00">RESTfulAnnotation</text>
</g>
<!-- \\core\\control\\tools\\Annotation -->
<g id="node18" class="node"><title>\\core\\control\\tools\\Annotation</title>
<polygon fill="none" stroke="black" points="122.016,-496 39.9946,-496 39.9946,-460 122.016,-460 122.016,-496"/>
<text text-anchor="start" x="48" y="-480.2" font-family="Courier,monospace" font-size="11.00">«abstract»</text>
<text text-anchor="start" x="48" y="-469.2" font-family="Courier,monospace" font-size="11.00">Annotation</text>
</g>
<!-- \\core\\control\\tools\\rest\\RESTfulAnnotation&#45;&gt;\\core\\control\\tools\\Annotation -->
<g id="edge8" class="edge"><title>\\core\\control\\tools\\rest\\RESTfulAnnotation&#45;&gt;\\core\\control\\tools\\Annotation</title>
<path fill="none" stroke="black" d="M196.8,-478C175.602,-478 152.274,-478 132.215,-478"/>
<polygon fill="none" stroke="black" points="132.052,-474.5 122.052,-478 132.052,-481.5 132.052,-474.5"/>
</g>
<!-- \\core\\control\\tools\\CSV -->
<g id="node19" class="node"><title>\\core\\control\\tools\\CSV</title>
<polygon fill="none" stroke="black" points="288.086,-442 234.086,-442 234.086,-406 288.086,-406 288.086,-442"/>
<text text-anchor="middle" x="261.086" y="-420.7" font-family="Courier,monospace" font-size="11.00">CSV</text>
</g>
<!-- \\core\\control\\tools\\Util -->
<g id="node21" class="node"><title>\\core\\control\\tools\\Util</title>
<polygon fill="none" stroke="black" points="288.086,-334 234.086,-334 234.086,-298 288.086,-298 288.086,-334"/>
<text text-anchor="middle" x="261.086" y="-312.7" font-family="Courier,monospace" font-size="11.00">Util</text>
</g>
<!-- \\core\\control\\System -->
<g id="node22" class="node"><title>\\core\\control\\System</title>
<polygon fill="none" stroke="black" points="498.48,-791 443.264,-791 443.264,-755 498.48,-755 498.48,-791"/>
<text text-anchor="middle" x="470.872" y="-769.7" font-family="Courier,monospace" font-size="11.00">System</text>
</g>
<!-- \\core\\control\\System&#45;&gt;\\core\\control\\tools\\designpattern\\Singleton -->
<g id="edge7" class="edge"><title>\\core\\control\\System&#45;&gt;\\core\\control\\tools\\designpattern\\Singleton</title>
<path fill="none" stroke="black" stroke-dasharray="1,5" d="M443.133,-773C409.283,-773 350.399,-773 308.996,-773"/>
<polygon fill="none" stroke="black" points="308.872,-769.5 298.872,-773 308.872,-776.5 308.872,-769.5"/>
</g>
<!-- \\core\\view\\html\\Element -->
<g id="node23" class="node"><title>\\core\\view\\html\\Element</title>
<polygon fill="none" stroke="black" points="302.097,-193 220.075,-193 220.075,-157 302.097,-157 302.097,-193"/>
<text text-anchor="start" x="228.081" y="-177.2" font-family="Courier,monospace" font-size="11.00">«abstract»</text>
<text text-anchor="start" x="237.982" y="-166.2" font-family="Courier,monospace" font-size="11.00">Element</text>
</g>
<!-- \\core\\view\\html\\ElementsComposition -->
<g id="node24" class="node"><title>\\core\\view\\html\\ElementsComposition</title>
<polygon fill="none" stroke="black" points="541.793,-220 399.951,-220 399.951,-184 541.793,-184 541.793,-220"/>
<text text-anchor="start" x="437.867" y="-204.2" font-family="Courier,monospace" font-size="11.00">«abstract»</text>
<text text-anchor="start" x="408.162" y="-193.2" font-family="Courier,monospace" font-size="11.00">ElementsComposition</text>
</g>
<!-- \\core\\view\\html\\ElementsComposition&#45;&gt;\\core\\control\\tools\\designpattern\\Inflater -->
<g id="edge10" class="edge"><title>\\core\\view\\html\\ElementsComposition&#45;&gt;\\core\\control\\tools\\designpattern\\Inflater</title>
<path fill="none" stroke="black" stroke-dasharray="1,5" d="M449.249,-220.213C432.837,-235.942 410.708,-260.158 398.763,-286 332.802,-428.7 440.766,-513.346 341.195,-635 332.137,-646.067 318.525,-653.056 305.134,-657.467"/>
<polygon fill="none" stroke="black" points="304.131,-654.114 295.491,-660.245 306.069,-660.84 304.131,-654.114"/>
</g>
<!-- \\core\\view\\html\\ElementsComposition&#45;&gt;\\core\\view\\html\\Element -->
<g id="edge9" class="edge"><title>\\core\\view\\html\\ElementsComposition&#45;&gt;\\core\\view\\html\\Element</title>
<path fill="none" stroke="black" d="M400.104,-192.934C371.378,-189.201 338.735,-184.96 312.41,-181.539"/>
<polygon fill="none" stroke="black" points="312.652,-178.041 302.284,-180.223 311.75,-184.983 312.652,-178.041"/>
</g>
<!-- \\core\\view\\html\\GenericElement -->
<g id="node25" class="node"><title>\\core\\view\\html\\GenericElement</title>
<polygon fill="none" stroke="black" points="722.206,-220 613.374,-220 613.374,-184 722.206,-184 722.206,-220"/>
<text text-anchor="middle" x="667.79" y="-198.7" font-family="Courier,monospace" font-size="11.00">GenericElement</text>
</g>
<!-- \\core\\view\\html\\GenericElement&#45;&gt;\\core\\view\\html\\ElementsComposition -->
<g id="edge11" class="edge"><title>\\core\\view\\html\\GenericElement&#45;&gt;\\core\\view\\html\\ElementsComposition</title>
<path fill="none" stroke="black" d="M613.528,-202C594.542,-202 572.717,-202 551.975,-202"/>
<polygon fill="none" stroke="black" points="551.898,-198.5 541.898,-202 551.897,-205.5 551.898,-198.5"/>
</g>
<!-- \\core\\view\\html\\TextElement -->
<g id="node26" class="node"><title>\\core\\view\\html\\TextElement</title>
<polygon fill="none" stroke="black" points="514.985,-166 426.759,-166 426.759,-130 514.985,-130 514.985,-166"/>
<text text-anchor="middle" x="470.872" y="-144.7" font-family="Courier,monospace" font-size="11.00">TextElement</text>
</g>
<!-- \\core\\view\\html\\TextElement&#45;&gt;\\core\\view\\html\\Element -->
<g id="edge12" class="edge"><title>\\core\\view\\html\\TextElement&#45;&gt;\\core\\view\\html\\Element</title>
<path fill="none" stroke="black" d="M426.566,-153.627C393.225,-157.96 347.086,-163.955 312.159,-168.493"/>
<polygon fill="none" stroke="black" points="311.632,-165.032 302.167,-169.792 312.534,-171.974 311.632,-165.032"/>
</g>
</g>
</svg>
