<?xml version="1.0" encoding="UTF-8" standalone="no"?>
<!DOCTYPE svg PUBLIC "-//W3C//DTD SVG 1.1//EN"
 "http://www.w3.org/Graphics/SVG/1.1/DTD/svg11.dtd">
<!-- Generated by graphviz version 2.38.0 (20140413.2041)
 -->
<!-- Title: G Pages: 1 -->
<svg width="778pt" height="1792pt"
 viewBox="0.00 0.00 777.84 1792.00" xmlns="http://www.w3.org/2000/svg" xmlns:xlink="http://www.w3.org/1999/xlink">
<g id="graph0" class="graph" transform="scale(1 1) rotate(0) translate(4 1788)">
<title>G</title>
<polygon fill="white" stroke="none" points="-4,4 -4,-1788 773.838,-1788 773.838,4 -4,4"/>
<g id="clust1" class="cluster"><title>cluster_Global</title>
<path fill="none" stroke="gray" d="M87.1925,-98C87.1925,-98 749.838,-98 749.838,-98 755.838,-98 761.838,-104 761.838,-110 761.838,-110 761.838,-1764 761.838,-1764 761.838,-1770 755.838,-1776 749.838,-1776 749.838,-1776 87.1925,-1776 87.1925,-1776 81.1925,-1776 75.1925,-1770 75.1925,-1764 75.1925,-1764 75.1925,-110 75.1925,-110 75.1925,-104 81.1925,-98 87.1925,-98"/>
<text text-anchor="middle" x="418.515" y="-1763.2" font-family="Times,serif" font-size="11.00" fill="gray">Global</text>
</g>
<g id="clust2" class="cluster"><title>cluster_\core</title>
<path fill="none" stroke="gray" d="M95.1925,-106C95.1925,-106 741.838,-106 741.838,-106 747.838,-106 753.838,-112 753.838,-118 753.838,-118 753.838,-1544 753.838,-1544 753.838,-1550 747.838,-1556 741.838,-1556 741.838,-1556 95.1925,-1556 95.1925,-1556 89.1925,-1556 83.1925,-1550 83.1925,-1544 83.1925,-1544 83.1925,-118 83.1925,-118 83.1925,-112 89.1925,-106 95.1925,-106"/>
<text text-anchor="middle" x="418.515" y="-1543.2" font-family="Times,serif" font-size="11.00" fill="gray">core</text>
</g>
<g id="clust3" class="cluster"><title>cluster_\core\datatypes</title>
<path fill="none" stroke="gray" d="M638.625,-114C638.625,-114 712.636,-114 712.636,-114 718.636,-114 724.636,-120 724.636,-126 724.636,-126 724.636,-227 724.636,-227 724.636,-233 718.636,-239 712.636,-239 712.636,-239 638.625,-239 638.625,-239 632.625,-239 626.625,-233 626.625,-227 626.625,-227 626.625,-126 626.625,-126 626.625,-120 632.625,-114 638.625,-114"/>
<text text-anchor="middle" x="675.63" y="-226.2" font-family="Times,serif" font-size="11.00" fill="gray">datatypes</text>
</g>
<g id="clust4" class="cluster"><title>cluster_\core\control</title>
<path fill="none" stroke="gray" d="M103.193,-1028C103.193,-1028 553.423,-1028 553.423,-1028 559.423,-1028 565.423,-1034 565.423,-1040 565.423,-1040 565.423,-1517 565.423,-1517 565.423,-1523 559.423,-1529 553.423,-1529 553.423,-1529 103.193,-1529 103.193,-1529 97.1925,-1529 91.1925,-1523 91.1925,-1517 91.1925,-1517 91.1925,-1040 91.1925,-1040 91.1925,-1034 97.1925,-1028 103.193,-1028"/>
<text text-anchor="middle" x="328.308" y="-1516.2" font-family="Times,serif" font-size="11.00" fill="gray">control</text>
</g>
<g id="clust5" class="cluster"><title>cluster_\core\control\database</title>
<path fill="none" stroke="gray" d="M111.193,-1269C111.193,-1269 532.221,-1269 532.221,-1269 538.221,-1269 544.221,-1275 544.221,-1281 544.221,-1281 544.221,-1490 544.221,-1490 544.221,-1496 538.221,-1502 532.221,-1502 532.221,-1502 111.193,-1502 111.193,-1502 105.193,-1502 99.1925,-1496 99.1925,-1490 99.1925,-1490 99.1925,-1281 99.1925,-1281 99.1925,-1275 105.193,-1269 111.193,-1269"/>
<text text-anchor="middle" x="321.707" y="-1489.2" font-family="Times,serif" font-size="11.00" fill="gray">database</text>
</g>
<g id="clust6" class="cluster"><title>cluster_\core\control\error</title>
<path fill="none" stroke="gray" d="M398.8,-1136C398.8,-1136 545.423,-1136 545.423,-1136 551.423,-1136 557.423,-1142 557.423,-1148 557.423,-1148 557.423,-1249 557.423,-1249 557.423,-1255 551.423,-1261 545.423,-1261 545.423,-1261 398.8,-1261 398.8,-1261 392.8,-1261 386.8,-1255 386.8,-1249 386.8,-1249 386.8,-1148 386.8,-1148 386.8,-1142 392.8,-1136 398.8,-1136"/>
<text text-anchor="middle" x="472.111" y="-1248.2" font-family="Times,serif" font-size="11.00" fill="gray">error</text>
</g>
<g id="clust7" class="cluster"><title>cluster_\core\tools</title>
<path fill="none" stroke="gray" d="M103.193,-415C103.193,-415 553.423,-415 553.423,-415 559.423,-415 565.423,-421 565.423,-427 565.423,-427 565.423,-1008 565.423,-1008 565.423,-1014 559.423,-1020 553.423,-1020 553.423,-1020 103.193,-1020 103.193,-1020 97.1925,-1020 91.1925,-1014 91.1925,-1008 91.1925,-1008 91.1925,-427 91.1925,-427 91.1925,-421 97.1925,-415 103.193,-415"/>
<text text-anchor="middle" x="328.308" y="-1007.2" font-family="Times,serif" font-size="11.00" fill="gray">tools</text>
</g>
<g id="clust8" class="cluster"><title>cluster_\core\tools\rest</title>
<path fill="none" stroke="gray" d="M412.002,-814C412.002,-814 532.221,-814 532.221,-814 538.221,-814 544.221,-820 544.221,-826 544.221,-826 544.221,-981 544.221,-981 544.221,-987 538.221,-993 532.221,-993 532.221,-993 412.002,-993 412.002,-993 406.002,-993 400.002,-987 400.002,-981 400.002,-981 400.002,-826 400.002,-826 400.002,-820 406.002,-814 412.002,-814"/>
<text text-anchor="middle" x="472.111" y="-980.2" font-family="Times,serif" font-size="11.00" fill="gray">rest</text>
</g>
<g id="clust9" class="cluster"><title>cluster_\core\tools\test</title>
<path fill="none" stroke="gray" d="M398.8,-548C398.8,-548 545.423,-548 545.423,-548 551.423,-548 557.423,-554 557.423,-560 557.423,-560 557.423,-661 557.423,-661 557.423,-667 551.423,-673 545.423,-673 545.423,-673 398.8,-673 398.8,-673 392.8,-673 386.8,-667 386.8,-661 386.8,-661 386.8,-560 386.8,-560 386.8,-554 392.8,-548 398.8,-548"/>
<text text-anchor="middle" x="472.111" y="-660.2" font-family="Times,serif" font-size="11.00" fill="gray">test</text>
</g>
<g id="clust10" class="cluster"><title>cluster_\core\tools\designpattern</title>
<path fill="none" stroke="gray" d="M111.193,-720C111.193,-720 211.608,-720 211.608,-720 217.608,-720 223.608,-726 223.608,-732 223.608,-732 223.608,-887 223.608,-887 223.608,-893 217.608,-899 211.608,-899 211.608,-899 111.193,-899 111.193,-899 105.193,-899 99.1925,-893 99.1925,-887 99.1925,-887 99.1925,-732 99.1925,-732 99.1925,-726 105.193,-720 111.193,-720"/>
<text text-anchor="middle" x="161.4" y="-886.2" font-family="Times,serif" font-size="11.00" fill="gray">designpattern</text>
</g>
<g id="clust11" class="cluster"><title>cluster_\core\tools\session</title>
<path fill="none" stroke="gray" d="M415.303,-681C415.303,-681 528.92,-681 528.92,-681 534.92,-681 540.92,-687 540.92,-693 540.92,-693 540.92,-794 540.92,-794 540.92,-800 534.92,-806 528.92,-806 528.92,-806 415.303,-806 415.303,-806 409.303,-806 403.303,-800 403.303,-794 403.303,-794 403.303,-693 403.303,-693 403.303,-687 409.303,-681 415.303,-681"/>
<text text-anchor="middle" x="472.111" y="-793.2" font-family="Times,serif" font-size="11.00" fill="gray">session</text>
</g>
<g id="clust12" class="cluster"><title>cluster_\core\tools\datatypes</title>
<path fill="none" stroke="gray" d="M435.106,-469C435.106,-469 509.117,-469 509.117,-469 515.117,-469 521.117,-475 521.117,-481 521.117,-481 521.117,-528 521.117,-528 521.117,-534 515.117,-540 509.117,-540 509.117,-540 435.106,-540 435.106,-540 429.106,-540 423.106,-534 423.106,-528 423.106,-528 423.106,-481 423.106,-481 423.106,-475 429.106,-469 435.106,-469"/>
<text text-anchor="middle" x="472.111" y="-527.2" font-family="Times,serif" font-size="11.00" fill="gray">datatypes</text>
</g>
<g id="clust13" class="cluster"><title>cluster_\core\view</title>
<path fill="none" stroke="gray" d="M116.395,-247C116.395,-247 733.838,-247 733.838,-247 739.838,-247 745.838,-253 745.838,-259 745.838,-259 745.838,-395 745.838,-395 745.838,-401 739.838,-407 733.838,-407 733.838,-407 116.395,-407 116.395,-407 110.395,-407 104.395,-401 104.395,-395 104.395,-395 104.395,-259 104.395,-259 104.395,-253 110.395,-247 116.395,-247"/>
<text text-anchor="middle" x="425.116" y="-394.2" font-family="Times,serif" font-size="11.00" fill="gray">view</text>
</g>
<g id="clust14" class="cluster"><title>cluster_\core\view\html</title>
<path fill="none" stroke="gray" d="M124.395,-255C124.395,-255 725.838,-255 725.838,-255 731.838,-255 737.838,-261 737.838,-267 737.838,-267 737.838,-368 737.838,-368 737.838,-374 731.838,-380 725.838,-380 725.838,-380 124.395,-380 124.395,-380 118.395,-380 112.395,-374 112.395,-368 112.395,-368 112.395,-267 112.395,-267 112.395,-261 118.395,-255 124.395,-255"/>
<text text-anchor="middle" x="425.116" y="-367.2" font-family="Times,serif" font-size="11.00" fill="gray">html</text>
</g>
<g id="clust15" class="cluster"><title>cluster_\application</title>
<path fill="none" stroke="gray" d="M637.226,-1564C637.226,-1564 714.034,-1564 714.034,-1564 720.034,-1564 726.034,-1570 726.034,-1576 726.034,-1576 726.034,-1737 726.034,-1737 726.034,-1743 720.034,-1749 714.034,-1749 714.034,-1749 637.226,-1749 637.226,-1749 631.226,-1749 625.226,-1743 625.226,-1737 625.226,-1737 625.226,-1576 625.226,-1576 625.226,-1570 631.226,-1564 637.226,-1564"/>
<text text-anchor="middle" x="675.63" y="-1736.2" font-family="Times,serif" font-size="11.00" fill="gray">application</text>
</g>
<g id="clust16" class="cluster"><title>cluster_\application\tests</title>
<path fill="none" stroke="gray" d="M645.226,-1572C645.226,-1572 706.034,-1572 706.034,-1572 712.034,-1572 718.034,-1578 718.034,-1584 718.034,-1584 718.034,-1631 718.034,-1631 718.034,-1637 712.034,-1643 706.034,-1643 706.034,-1643 645.226,-1643 645.226,-1643 639.226,-1643 633.226,-1637 633.226,-1631 633.226,-1631 633.226,-1584 633.226,-1584 633.226,-1578 639.226,-1572 645.226,-1572"/>
<text text-anchor="middle" x="675.63" y="-1630.2" font-family="Times,serif" font-size="11.00" fill="gray">tests</text>
</g>
<g id="clust17" class="cluster"><title>cluster_\application\src</title>
<path fill="none" stroke="gray" d="M652.63,-1651C652.63,-1651 698.63,-1651 698.63,-1651 704.63,-1651 710.63,-1657 710.63,-1663 710.63,-1663 710.63,-1710 710.63,-1710 710.63,-1716 704.63,-1722 698.63,-1722 698.63,-1722 652.63,-1722 652.63,-1722 646.63,-1722 640.63,-1716 640.63,-1710 640.63,-1710 640.63,-1663 640.63,-1663 640.63,-1657 646.63,-1651 652.63,-1651"/>
<text text-anchor="middle" x="675.63" y="-1709.2" font-family="Times,serif" font-size="11.00" fill="gray">src</text>
</g>
<!-- \\core\\datatypes\\ArrayList -->
<g id="node1" class="node"><title>\\core\\datatypes\\ArrayList</title>
<polygon fill="none" stroke="black" points="713.541,-212 637.719,-212 637.719,-176 713.541,-176 713.541,-212"/>
<text text-anchor="middle" x="675.63" y="-190.7" font-family="Courier,monospace" font-size="11.00">ArrayList</text>
</g>
<!-- \\ArrayObject -->
<g id="node30" class="node"><title>\\ArrayObject</title>
<ellipse fill="none" stroke="black" cx="472.111" cy="-72" rx="56.5201" ry="18"/>
<text text-anchor="middle" x="472.111" y="-67.8" font-family="Times,serif" font-size="14.00" fill="gray">\ArrayObject</text>
</g>
<!-- \\core\\datatypes\\ArrayList&#45;&gt;\\ArrayObject -->
<g id="edge1" class="edge"><title>\\core\\datatypes\\ArrayList&#45;&gt;\\ArrayObject</title>
<path fill="none" stroke="black" d="M637.737,-175.884C632.221,-173.001 626.638,-169.983 621.423,-167 580.356,-143.506 534.753,-113.708 505.098,-93.8089"/>
<polygon fill="none" stroke="black" points="507.052,-90.9047 496.802,-88.2209 503.141,-96.7105 507.052,-90.9047"/>
</g>
<!-- \\core\\datatypes\\JsonObject -->
<g id="node2" class="node"><title>\\core\\datatypes\\JsonObject</title>
<polygon fill="none" stroke="black" points="716.641,-158 634.619,-158 634.619,-122 716.641,-122 716.641,-158"/>
<text text-anchor="middle" x="675.63" y="-136.7" font-family="Courier,monospace" font-size="11.00">JsonObject</text>
</g>
<!-- \\core\\control\\database\\Mysql -->
<g id="node3" class="node"><title>\\core\\control\\database\\Mysql</title>
<polygon fill="none" stroke="black" points="499.111,-1475 445.111,-1475 445.111,-1439 499.111,-1439 499.111,-1475"/>
<text text-anchor="middle" x="472.111" y="-1453.7" font-family="Courier,monospace" font-size="11.00">Mysql</text>
</g>
<!-- \\core\\control\\database\\DatabaseDriver -->
<g id="node7" class="node"><title>\\core\\control\\database\\DatabaseDriver</title>
<polygon fill="none" stroke="black" points="215.816,-1475 106.984,-1475 106.984,-1439 215.816,-1439 215.816,-1475"/>
<text text-anchor="middle" x="161.4" y="-1453.7" font-family="Courier,monospace" font-size="11.00">DatabaseDriver</text>
</g>
<!-- \\core\\control\\database\\Mysql&#45;&gt;\\core\\control\\database\\DatabaseDriver -->
<g id="edge8" class="edge"><title>\\core\\control\\database\\Mysql&#45;&gt;\\core\\control\\database\\DatabaseDriver</title>
<path fill="none" stroke="black" stroke-dasharray="1,5" d="M445.057,-1457C397.079,-1457 293.496,-1457 225.937,-1457"/>
<polygon fill="none" stroke="black" points="225.83,-1453.5 215.83,-1457 225.83,-1460.5 225.83,-1453.5"/>
</g>
<!-- \\core\\control\\database\\DatabaseException -->
<g id="node4" class="node"><title>\\core\\control\\database\\DatabaseException</title>
<polygon fill="none" stroke="black" points="536.33,-1421 407.893,-1421 407.893,-1385 536.33,-1385 536.33,-1421"/>
<text text-anchor="middle" x="472.111" y="-1399.7" font-family="Courier,monospace" font-size="11.00">DatabaseException</text>
</g>
<!-- \\ErrorException -->
<g id="node31" class="node"><title>\\ErrorException</title>
<ellipse fill="none" stroke="black" cx="161.4" cy="-18" rx="67.1511" ry="18"/>
<text text-anchor="middle" x="161.4" y="-13.8" font-family="Times,serif" font-size="14.00" fill="gray">\ErrorException</text>
</g>
<!-- \\core\\control\\database\\DatabaseException&#45;&gt;\\ErrorException -->
<g id="edge13" class="edge"><title>\\core\\control\\database\\DatabaseException&#45;&gt;\\ErrorException</title>
<path fill="none" stroke="black" d="M407.977,-1392.42C399.774,-1388.51 392.32,-1383.19 386.8,-1376 296.671,-1258.53 421.099,-155.721 322.8,-45 300.977,-20.4188 265.837,-12.6094 234.002,-11.4017"/>
<polygon fill="none" stroke="black" points="233.862,-7.89893 223.804,-11.2287 233.743,-14.8979 233.862,-7.89893"/>
</g>
<!-- \\core\\control\\database\\DatabaseResult -->
<g id="node5" class="node"><title>\\core\\control\\database\\DatabaseResult</title>
<polygon fill="none" stroke="black" points="526.527,-1367 417.696,-1367 417.696,-1331 526.527,-1331 526.527,-1367"/>
<text text-anchor="middle" x="472.111" y="-1345.7" font-family="Courier,monospace" font-size="11.00">DatabaseResult</text>
</g>
<!-- \\core\\control\\database\\Database -->
<g id="node6" class="node"><title>\\core\\control\\database\\Database</title>
<polygon fill="none" stroke="black" points="506.42,-1313 437.803,-1313 437.803,-1277 506.42,-1277 506.42,-1313"/>
<text text-anchor="middle" x="472.111" y="-1291.7" font-family="Courier,monospace" font-size="11.00">Database</text>
</g>
<!-- \\core\\control\\tools\\designpattern\\Singleton -->
<g id="node32" class="node"><title>\\core\\control\\tools\\designpattern\\Singleton</title>
<ellipse fill="none" stroke="black" cx="161.4" cy="-72" rx="161.3" ry="18"/>
<text text-anchor="middle" x="161.4" y="-67.8" font-family="Times,serif" font-size="14.00" fill="gray">\core\control\tools\designpattern\Singleton</text>
</g>
<!-- \\core\\control\\database\\Database&#45;&gt;\\core\\control\\tools\\designpattern\\Singleton -->
<g id="edge16" class="edge"><title>\\core\\control\\database\\Database&#45;&gt;\\core\\control\\tools\\designpattern\\Singleton</title>
<path fill="none" stroke="black" stroke-dasharray="1,5" d="M437.51,-1291.83C419.521,-1288.26 398.678,-1280.76 386.8,-1265 250.882,-1084.71 410.066,-459.235 322.8,-251 295.286,-185.346 233.211,-127.704 194.857,-96.5515"/>
<polygon fill="none" stroke="black" points="196.584,-93.4522 186.587,-89.9459 192.216,-98.9216 196.584,-93.4522"/>
</g>
<!-- \\core\\control\\error\\RuntimeErrorScheduler -->
<g id="node8" class="node"><title>\\core\\control\\error\\RuntimeErrorScheduler</title>
<polygon fill="none" stroke="black" points="549.234,-1234 394.988,-1234 394.988,-1198 549.234,-1198 549.234,-1234"/>
<text text-anchor="middle" x="472.111" y="-1212.7" font-family="Courier,monospace" font-size="11.00">RuntimeErrorScheduler</text>
</g>
<!-- \\core\\tools\\designpattern\\Singleton -->
<g id="node17" class="node"><title>\\core\\tools\\designpattern\\Singleton</title>
<polygon fill="none" stroke="black" points="199.311,-872 123.489,-872 123.489,-836 199.311,-836 199.311,-872"/>
<text text-anchor="middle" x="161.4" y="-850.7" font-family="Courier,monospace" font-size="11.00">Singleton</text>
</g>
<!-- \\core\\control\\error\\RuntimeErrorScheduler&#45;&gt;\\core\\tools\\designpattern\\Singleton -->
<g id="edge15" class="edge"><title>\\core\\control\\error\\RuntimeErrorScheduler&#45;&gt;\\core\\tools\\designpattern\\Singleton</title>
<path fill="none" stroke="black" stroke-dasharray="1,5" d="M401.127,-1197.82C396.065,-1195.25 391.221,-1192.33 386.8,-1189 274.254,-1104.28 199.988,-945.753 173.363,-881.803"/>
<polygon fill="none" stroke="black" points="176.531,-880.303 169.501,-872.377 170.054,-882.958 176.531,-880.303"/>
</g>
<!-- \\core\\control\\error\\ExceptionHandler -->
<g id="node9" class="node"><title>\\core\\control\\error\\ExceptionHandler</title>
<polygon fill="none" stroke="black" points="532.729,-1180 411.494,-1180 411.494,-1144 532.729,-1144 532.729,-1180"/>
<text text-anchor="middle" x="472.111" y="-1158.7" font-family="Courier,monospace" font-size="11.00">ExceptionHandler</text>
</g>
<!-- \\core\\control\\System -->
<g id="node10" class="node"><title>\\core\\control\\System</title>
<polygon fill="none" stroke="black" points="499.719,-1126 444.504,-1126 444.504,-1090 499.719,-1090 499.719,-1126"/>
<text text-anchor="middle" x="472.111" y="-1104.7" font-family="Courier,monospace" font-size="11.00">System</text>
</g>
<!-- \\core\\control\\System&#45;&gt;\\core\\tools\\designpattern\\Singleton -->
<g id="edge2" class="edge"><title>\\core\\control\\System&#45;&gt;\\core\\tools\\designpattern\\Singleton</title>
<path fill="none" stroke="black" stroke-dasharray="1,5" d="M444.262,-1102.88C426.962,-1098.77 404.483,-1091.85 386.8,-1081 296.99,-1025.87 216.785,-927.387 181.471,-880.379"/>
<polygon fill="none" stroke="black" points="184.182,-878.16 175.407,-872.223 178.565,-882.336 184.182,-878.16"/>
</g>
<!-- \\core\\control\\Annotation -->
<g id="node11" class="node"><title>\\core\\control\\Annotation</title>
<polygon fill="none" stroke="black" points="513.122,-1072 431.101,-1072 431.101,-1036 513.122,-1036 513.122,-1072"/>
<text text-anchor="start" x="439.106" y="-1056.2" font-family="Courier,monospace" font-size="11.00">«abstract»</text>
<text text-anchor="start" x="439.106" y="-1045.2" font-family="Courier,monospace" font-size="11.00">Annotation</text>
</g>
<!-- \\core\\tools\\rest\\RESTful -->
<g id="node12" class="node"><title>\\core\\tools\\rest\\RESTful</title>
<polygon fill="none" stroke="black" points="503.319,-966 440.904,-966 440.904,-930 503.319,-930 503.319,-966"/>
<text text-anchor="middle" x="472.111" y="-944.7" font-family="Courier,monospace" font-size="11.00">RESTful</text>
</g>
<!-- \\core\\tools\\rest\\RESTfulAnnotation -->
<g id="node13" class="node"><title>\\core\\tools\\rest\\RESTfulAnnotation</title>
<polygon fill="none" stroke="black" points="536.33,-858 407.893,-858 407.893,-822 536.33,-822 536.33,-858"/>
<text text-anchor="middle" x="472.111" y="-836.7" font-family="Courier,monospace" font-size="11.00">RESTfulAnnotation</text>
</g>
<!-- \\core\\tools\\rest\\RESTfulAnnotation&#45;&gt;\\core\\control\\Annotation -->
<g id="edge10" class="edge"><title>\\core\\tools\\rest\\RESTfulAnnotation&#45;&gt;\\core\\control\\Annotation</title>
<path fill="none" stroke="black" d="M536.346,-843.681C558.068,-848.407 580.158,-857.803 593.423,-876 622.745,-916.225 618.856,-945.21 593.423,-988 578.161,-1013.68 549.023,-1029.99 523.129,-1039.98"/>
<polygon fill="none" stroke="black" points="521.61,-1036.81 513.4,-1043.5 523.994,-1043.39 521.61,-1036.81"/>
</g>
<!-- \\core\\tools\\rest\\Resource -->
<g id="node14" class="node"><title>\\core\\tools\\rest\\Resource</title>
<polygon fill="none" stroke="black" points="513.122,-912 431.101,-912 431.101,-876 513.122,-876 513.122,-912"/>
<text text-anchor="start" x="439.106" y="-896.2" font-family="Courier,monospace" font-size="11.00">«abstract»</text>
<text text-anchor="start" x="445.707" y="-885.2" font-family="Courier,monospace" font-size="11.00">Resource</text>
</g>
<!-- \\core\\tools\\test\\TestNotFoundException -->
<g id="node15" class="node"><title>\\core\\tools\\test\\TestNotFoundException</title>
<polygon fill="none" stroke="black" points="549.234,-646 394.988,-646 394.988,-610 549.234,-610 549.234,-646"/>
<text text-anchor="middle" x="472.111" y="-624.7" font-family="Courier,monospace" font-size="11.00">TestNotFoundException</text>
</g>
<!-- \\core\\tools\\test\\TestNotFoundException&#45;&gt;\\ErrorException -->
<g id="edge3" class="edge"><title>\\core\\tools\\test\\TestNotFoundException&#45;&gt;\\ErrorException</title>
<path fill="none" stroke="black" d="M396.106,-609.811C392.675,-607.246 389.532,-604.325 386.8,-601 228.9,-408.801 494.041,-225.415 322.8,-45 300.522,-21.5282 266.047,-13.6601 234.759,-12.1292"/>
<polygon fill="none" stroke="black" points="234.828,-8.62988 224.732,-11.8431 234.628,-15.627 234.828,-8.62988"/>
</g>
<!-- \\core\\tools\\test\\UnitTest -->
<g id="node16" class="node"><title>\\core\\tools\\test\\UnitTest</title>
<polygon fill="none" stroke="black" points="513.122,-592 431.101,-592 431.101,-556 513.122,-556 513.122,-592"/>
<text text-anchor="start" x="439.106" y="-576.2" font-family="Courier,monospace" font-size="11.00">«abstract»</text>
<text text-anchor="start" x="445.707" y="-565.2" font-family="Courier,monospace" font-size="11.00">UnitTest</text>
</g>
<!-- \\core\\tools\\designpattern\\Responsibility -->
<g id="node18" class="node"><title>\\core\\tools\\designpattern\\Responsibility</title>
<polygon fill="none" stroke="black" points="215.816,-818 106.984,-818 106.984,-782 215.816,-782 215.816,-818"/>
<text text-anchor="middle" x="161.4" y="-796.7" font-family="Courier,monospace" font-size="11.00">Responsibility</text>
</g>
<!-- \\core\\tools\\designpattern\\Inflater -->
<g id="node19" class="node"><title>\\core\\tools\\designpattern\\Inflater</title>
<polygon fill="none" stroke="black" points="195.709,-764 127.091,-764 127.091,-728 195.709,-728 195.709,-764"/>
<text text-anchor="middle" x="161.4" y="-742.7" font-family="Courier,monospace" font-size="11.00">Inflater</text>
</g>
<!-- \\core\\tools\\session\\SessionException -->
<g id="node20" class="node"><title>\\core\\tools\\session\\SessionException</title>
<polygon fill="none" stroke="black" points="532.729,-725 411.494,-725 411.494,-689 532.729,-689 532.729,-725"/>
<text text-anchor="middle" x="472.111" y="-703.7" font-family="Courier,monospace" font-size="11.00">SessionException</text>
</g>
<!-- \\core\\tools\\session\\SessionException&#45;&gt;\\ErrorException -->
<g id="edge5" class="edge"><title>\\core\\tools\\session\\SessionException&#45;&gt;\\ErrorException</title>
<path fill="none" stroke="black" d="M411.178,-695.289C401.795,-690.972 393.127,-685.069 386.8,-677 299.702,-565.911 419.278,-148.049 322.8,-45 300.596,-21.2833 265.953,-13.4305 234.537,-11.9728"/>
<polygon fill="none" stroke="black" points="234.557,-8.47226 224.47,-11.7122 234.376,-15.4699 234.557,-8.47226"/>
</g>
<!-- \\core\\tools\\session\\Session -->
<g id="node21" class="node"><title>\\core\\tools\\session\\Session</title>
<polygon fill="none" stroke="black" points="503.319,-779 440.904,-779 440.904,-743 503.319,-743 503.319,-779"/>
<text text-anchor="middle" x="472.111" y="-757.7" font-family="Courier,monospace" font-size="11.00">Session</text>
</g>
<!-- \\core\\tools\\session\\Session&#45;&gt;\\core\\tools\\designpattern\\Singleton -->
<g id="edge14" class="edge"><title>\\core\\tools\\session\\Session&#45;&gt;\\core\\tools\\designpattern\\Singleton</title>
<path fill="none" stroke="black" stroke-dasharray="1,5" d="M440.733,-777.248C411.349,-792.301 365.165,-814.232 322.8,-827 285.472,-838.25 241.756,-845.219 209.397,-849.252"/>
<polygon fill="none" stroke="black" points="208.826,-845.795 199.313,-850.46 209.658,-852.745 208.826,-845.795"/>
</g>
<!-- \\core\\tools\\datatypes\\CSVFactory -->
<g id="node22" class="node"><title>\\core\\tools\\datatypes\\CSVFactory</title>
<polygon fill="none" stroke="black" points="513.122,-513 431.101,-513 431.101,-477 513.122,-477 513.122,-513"/>
<text text-anchor="middle" x="472.111" y="-491.7" font-family="Courier,monospace" font-size="11.00">CSVFactory</text>
</g>
<!-- \\core\\tools\\Util -->
<g id="node23" class="node"><title>\\core\\tools\\Util</title>
<polygon fill="none" stroke="black" points="499.111,-459 445.111,-459 445.111,-423 499.111,-423 499.111,-459"/>
<text text-anchor="middle" x="472.111" y="-437.7" font-family="Courier,monospace" font-size="11.00">Util</text>
</g>
<!-- \\core\\view\\html\\Element -->
<g id="node24" class="node"><title>\\core\\view\\html\\Element</title>
<polygon fill="none" stroke="black" points="202.411,-326 120.389,-326 120.389,-290 202.411,-290 202.411,-326"/>
<text text-anchor="start" x="128.395" y="-310.2" font-family="Courier,monospace" font-size="11.00">«abstract»</text>
<text text-anchor="start" x="138.296" y="-299.2" font-family="Courier,monospace" font-size="11.00">Element</text>
</g>
<!-- \\core\\view\\html\\GenericElement -->
<g id="node25" class="node"><title>\\core\\view\\html\\GenericElement</title>
<polygon fill="none" stroke="black" points="730.046,-353 621.214,-353 621.214,-317 730.046,-317 730.046,-353"/>
<text text-anchor="middle" x="675.63" y="-331.7" font-family="Courier,monospace" font-size="11.00">GenericElement</text>
</g>
<!-- \\core\\view\\html\\ElementsComposition -->
<g id="node26" class="node"><title>\\core\\view\\html\\ElementsComposition</title>
<polygon fill="none" stroke="black" points="543.032,-353 401.19,-353 401.19,-317 543.032,-317 543.032,-353"/>
<text text-anchor="start" x="439.106" y="-337.2" font-family="Courier,monospace" font-size="11.00">«abstract»</text>
<text text-anchor="start" x="409.401" y="-326.2" font-family="Courier,monospace" font-size="11.00">ElementsComposition</text>
</g>
<!-- \\core\\view\\html\\GenericElement&#45;&gt;\\core\\view\\html\\ElementsComposition -->
<g id="edge4" class="edge"><title>\\core\\view\\html\\GenericElement&#45;&gt;\\core\\view\\html\\ElementsComposition</title>
<path fill="none" stroke="black" d="M621.42,-335C600.495,-335 576.02,-335 553.054,-335"/>
<polygon fill="none" stroke="black" points="552.973,-331.5 542.973,-335 552.973,-338.5 552.973,-331.5"/>
</g>
<!-- \\core\\view\\html\\ElementsComposition&#45;&gt;\\core\\tools\\designpattern\\Inflater -->
<g id="edge7" class="edge"><title>\\core\\view\\html\\ElementsComposition&#45;&gt;\\core\\tools\\designpattern\\Inflater</title>
<path fill="none" stroke="black" stroke-dasharray="1,5" d="M447.855,-353.291C430.07,-367.886 405.506,-389.399 386.8,-411 295.67,-516.233 210.712,-660.122 177.327,-719.111"/>
<polygon fill="none" stroke="black" points="174.274,-717.399 172.419,-727.83 180.374,-720.833 174.274,-717.399"/>
</g>
<!-- \\core\\view\\html\\ElementsComposition&#45;&gt;\\core\\view\\html\\Element -->
<g id="edge6" class="edge"><title>\\core\\view\\html\\ElementsComposition&#45;&gt;\\core\\view\\html\\Element</title>
<path fill="none" stroke="black" d="M401.06,-328.873C343.642,-323.851 263.772,-316.866 212.576,-312.388"/>
<polygon fill="none" stroke="black" points="212.687,-308.885 202.42,-311.5 212.077,-315.858 212.687,-308.885"/>
</g>
<!-- \\core\\view\\html\\TextElement -->
<g id="node27" class="node"><title>\\core\\view\\html\\TextElement</title>
<polygon fill="none" stroke="black" points="516.224,-299 427.999,-299 427.999,-263 516.224,-263 516.224,-299"/>
<text text-anchor="middle" x="472.111" y="-277.7" font-family="Courier,monospace" font-size="11.00">TextElement</text>
</g>
<!-- \\core\\view\\html\\TextElement&#45;&gt;\\core\\view\\html\\Element -->
<g id="edge11" class="edge"><title>\\core\\view\\html\\TextElement&#45;&gt;\\core\\view\\html\\Element</title>
<path fill="none" stroke="black" d="M427.861,-284.783C371.233,-289.735 272.162,-298.4 212.383,-303.629"/>
<polygon fill="none" stroke="black" points="212.075,-300.142 202.418,-304.5 212.685,-307.115 212.075,-300.142"/>
</g>
<!-- \\application\\tests\\MainTest -->
<g id="node28" class="node"><title>\\application\\tests\\MainTest</title>
<polygon fill="none" stroke="black" points="709.939,-1616 641.321,-1616 641.321,-1580 709.939,-1580 709.939,-1616"/>
<text text-anchor="middle" x="675.63" y="-1594.7" font-family="Courier,monospace" font-size="11.00">MainTest</text>
</g>
<!-- \\application\\tests\\MainTest&#45;&gt;\\core\\tools\\test\\UnitTest -->
<g id="edge9" class="edge"><title>\\application\\tests\\MainTest&#45;&gt;\\core\\tools\\test\\UnitTest</title>
<path fill="none" stroke="black" d="M673.836,-1579.74C668.072,-1450.71 631.003,-679.229 565.423,-601 554.951,-588.509 539.043,-581.618 523.367,-577.873"/>
<polygon fill="none" stroke="black" points="523.65,-574.36 513.159,-575.838 522.282,-581.225 523.65,-574.36"/>
</g>
<!-- \\application\\src\\App -->
<g id="node29" class="node"><title>\\application\\src\\App</title>
<polygon fill="none" stroke="black" points="702.63,-1695 648.63,-1695 648.63,-1659 702.63,-1659 702.63,-1695"/>
<text text-anchor="middle" x="675.63" y="-1673.7" font-family="Courier,monospace" font-size="11.00">App</text>
</g>
<!-- \\application\\src\\App&#45;&gt;\\core\\tools\\rest\\Resource -->
<g id="edge12" class="edge"><title>\\application\\src\\App&#45;&gt;\\core\\tools\\rest\\Resource</title>
<path fill="none" stroke="black" d="M648.567,-1668.46C638.395,-1663.76 627.69,-1656.84 621.423,-1647 534.487,-1510.52 667.372,-1046.66 565.423,-921 555.153,-908.342 539.293,-901.412 523.599,-897.681"/>
<polygon fill="none" stroke="black" points="523.859,-894.165 513.371,-895.664 522.504,-901.033 523.859,-894.165"/>
</g>
</g>
</svg>
